<?xml version="1.0" encoding="UTF-8"?>
<svg version="1.1" xmlns="http://www.w3.org/2000/svg" width="1024" height="1024">
<path d="M0 0 C337.92 0 675.84 0 1024 0 C1024 337.92 1024 675.84 1024 1024 C686.08 1024 348.16 1024 0 1024 C0 686.08 0 348.16 0 0 Z " fill="#080D1E" transform="translate(0,0)"/>
<path d="M0 0 C1.65 0 3.3 0 5 0 C5 337.26 5 674.52 5 1022 C341.27 1022 677.54 1022 1024 1022 C1024 1022.66 1024 1023.32 1024 1024 C686.08 1024 348.16 1024 0 1024 C0 686.08 0 348.16 0 0 Z " fill="#6E737B" transform="translate(0,0)"/>
<path d="M0 0 C5.94 0 11.88 0 18 0 C21.09423959 3.34377504 22.39801682 5.08054051 24.09179688 9.03125 C25.53946161 12.16941355 27.333789 15.09471884 29.08666992 18.07006836 C34.91116387 27.98030476 40.35417962 38.1057961 45.72314453 48.26831055 C46.2386084 49.23422119 46.75407227 50.20013184 47.28515625 51.1953125 C47.73769775 52.05141113 48.19023926 52.90750977 48.65649414 53.78955078 C49.92241856 55.87235647 51.19792396 57.37485747 53 59 C60.5349414 46.71870592 67.71636043 34.2668725 74.65844727 21.64331055 C75.84670283 19.48406293 77.05485836 17.33563419 78.28369141 15.19921875 C80.07673864 12.01721918 80.07673864 12.01721918 81.33740234 8.51953125 C82.76171875 5.1875 82.76171875 5.1875 87 0 C93.27 0 99.54 0 106 0 C106 26.4 106 52.8 106 80 C101.38 80 96.76 80 92 80 C91.67 60.2 91.34 40.4 91 20 C87.04 26.93 83.08 33.86 79 41 C76.37033269 45.42840778 73.73462848 49.84782098 71.0625 54.25 C66.91094254 61.10158183 62.84315409 67.97001794 59 75 C54.71 75 50.42 75 46 75 C45.21238281 73.59492187 44.42476563 72.18984375 43.61328125 70.7421875 C37.33327072 59.56929392 30.96972935 48.45626978 24.40356445 37.44873047 C21.94198622 33.31661303 19.50057345 29.17446464 17.125 24.9921875 C16.71507812 24.27144043 16.30515625 23.55069336 15.8828125 22.80810547 C15 21 15 21 15 19 C14.34 19 13.68 19 13 19 C13 39.13 13 59.26 13 80 C8.71 80 4.42 80 0 80 C0 53.6 0 27.2 0 0 Z " fill="#E0E7EA" transform="translate(353,457)"/>
<path d="M0 0 C4.0830942 -0.11614929 8.16576377 -0.18723457 12.25 -0.25 C13.40886719 -0.28351563 14.56773437 -0.31703125 15.76171875 -0.3515625 C16.87675781 -0.36445313 17.99179688 -0.37734375 19.140625 -0.390625 C20.16704102 -0.41157227 21.19345703 -0.43251953 22.25097656 -0.45410156 C25.70413805 0.1163141 26.87908227 1.27310577 29 4 C29 4.66 29 5.32 29 6 C29.66 6 30.32 6 31 6 C32.41015625 7.43359375 32.41015625 7.43359375 34.0625 9.4375 C36.78893564 12.65344184 39.61859151 15.66878196 42.625 18.625 C45.98306956 21.93714724 49.06628586 25.30919834 52 29 C56.70331575 25.25872611 60.76846712 21.17392299 64.8125 16.75 C65.33827637 16.18941895 65.86405273 15.62883789 66.40576172 15.05126953 C68.86038055 12.42180526 71.10624933 9.85341701 73.22265625 6.93359375 C76.23321146 3.09254055 78.57558263 0.39137548 83.58007812 -0.41650391 C90.07213339 -0.85168326 96.52357717 -0.5523058 103 0 C101.14889338 3.97777388 98.5495614 6.89517275 95.5625 10.0625 C95.03116455 10.63250732 94.4998291 11.20251465 93.95239258 11.78979492 C89.56635582 16.46697769 85.03655869 20.98475611 80.4765625 25.4921875 C77.66539735 28.33882476 75.03493825 31.29909273 72.4375 34.33984375 C70.71819357 36.3254558 68.89435001 38.18142399 67 40 C68.58939426 43.93214301 71.16342502 46.33020346 74.1875 49.25 C77.43535628 52.42201855 80.61742586 55.60309473 83.5625 59.0625 C86.23596826 62.19757429 89.06881809 65.10408042 92 68 C102.8836858 78.7673716 102.8836858 78.7673716 105 83 C101.16771468 83.23433541 97.33728683 83.37506508 93.5 83.5 C91.88351562 83.60054687 91.88351562 83.60054687 90.234375 83.703125 C82.30657641 83.89648594 82.30657641 83.89648594 78.55444336 81.32202148 C76.52695356 79.30760173 74.75329497 77.25460784 73 75 C71.85897615 73.68331672 70.71381915 72.37019052 69.5625 71.0625 C69.00046875 70.40765625 68.4384375 69.7528125 67.859375 69.078125 C65.04762301 65.93557865 62.02462091 63.01489913 59.0234375 60.0546875 C56.83254004 57.82995378 54.86061645 55.50778739 53 53 C49.68539307 54.10486898 49.03023894 54.87623086 46.875 57.5 C44.20785079 60.65106235 41.44435078 63.60589411 38.5 66.5 C35.02647567 69.92618498 31.76270446 73.45725919 28.60546875 77.17578125 C28.07566406 77.77777344 27.54585938 78.37976563 27 79 C26.41871338 79.68956787 25.83742676 80.37913574 25.23852539 81.08959961 C22.46240834 83.45879101 21.17850592 83.47063346 17.578125 83.390625 C16.04091797 83.37128906 16.04091797 83.37128906 14.47265625 83.3515625 C13.40917969 83.31804687 12.34570312 83.28453125 11.25 83.25 C10.17105469 83.23195313 9.09210938 83.21390625 7.98046875 83.1953125 C5.31941212 83.14821415 2.66015746 83.082456 0 83 C0.39687012 82.53746826 0.79374023 82.07493652 1.20263672 81.59838867 C4.45999014 77.80271119 4.45999014 77.80271119 7.6953125 73.98828125 C11.75920787 69.2248629 16.13242004 64.83264184 20.58300781 60.4362793 C24.04112467 57.00485553 27.30537414 53.46844265 30.46484375 49.7578125 C32.84458612 47.03291666 35.41123494 44.52562445 38 42 C36.64768813 38.97022571 35.14519457 36.91527387 32.76953125 34.609375 C32.1350708 33.98651611 31.50061035 33.36365723 30.84692383 32.72192383 C29.83988403 31.74582153 29.83988403 31.74582153 28.8125 30.75 C24.29919186 26.31299999 19.90764794 21.88319861 15.8203125 17.046875 C13.21298961 14.11503552 10.45640711 11.34118692 7.6875 8.5625 C7.15874268 8.02923096 6.62998535 7.49596191 6.08520508 6.9465332 C3.30700033 4.12362326 3.30700033 4.12362326 0 2 C0 1.34 0 0.68 0 0 Z " fill="#144A9C" transform="translate(234,454)"/>
<path d="M0 0 C1.40246885 0.00373542 2.80494032 0.00657989 4.20741272 0.00857544 C7.87842152 0.01617029 11.5492692 0.03578252 15.22021484 0.0579834 C18.97426169 0.07853178 22.72833486 0.08759629 26.48242188 0.09765625 C33.83341489 0.11903287 41.18424237 0.15418054 48.53515625 0.1953125 C48.53515625 4.1553125 48.53515625 8.1153125 48.53515625 12.1953125 C46.77405518 12.21513184 45.0129541 12.23495117 43.19848633 12.25537109 C37.37096823 12.32322225 31.54360433 12.4000038 25.71628284 12.48283958 C22.18418598 12.53272318 18.65211786 12.57905357 15.11987305 12.6171875 C11.05628864 12.66121504 6.99306153 12.72083357 2.9296875 12.78125 C1.66494095 12.79280121 0.4001944 12.80435242 -0.90287781 12.81625366 C-2.08372452 12.83612335 -3.26457123 12.85599304 -4.48120117 12.87646484 C-5.51822678 12.88978851 -6.55525238 12.90311218 -7.623703 12.9168396 C-10.60126401 13.20868366 -12.79174259 13.86707209 -15.46484375 15.1953125 C-16.43108542 16.87359658 -16.43108542 16.87359658 -16.46484375 19.1953125 C-16.56796875 20.4946875 -16.67109375 21.7940625 -16.77734375 23.1328125 C-16.74113092 26.36782546 -16.4442101 27.22875325 -14.65234375 30.1328125 C-11.56785163 33.04104793 -9.11638358 33.31907216 -5.04443359 33.3371582 C-4.15275482 33.34419266 -3.26107605 33.35122711 -2.34237671 33.35847473 C-1.37990021 33.36263901 -0.41742371 33.36680328 0.57421875 33.37109375 C2.61980183 33.3943035 4.66537476 33.4184213 6.7109375 33.44335938 C9.92991814 33.47837491 13.14852846 33.50776382 16.36767578 33.52124023 C19.47864618 33.53680706 22.58853703 33.57708367 25.69921875 33.62109375 C26.64954987 33.61918533 27.59988098 33.61727692 28.57901001 33.61531067 C36.39896303 33.75693105 42.51994021 35.56501766 48.47265625 40.7578125 C52.91433167 46.00706527 52.90061504 49.275526 52.91015625 55.8828125 C52.93464844 56.75615234 52.95914063 57.62949219 52.984375 58.52929688 C53.01149558 64.58170557 52.06191523 69.19197043 48.53515625 74.1953125 C46.5 76.03515625 46.5 76.03515625 44.47265625 77.1328125 C43.80105469 77.51308594 43.12945313 77.89335938 42.4375 78.28515625 C38.46339666 80.18652397 35.31336306 80.31689883 30.95239258 80.30883789 C30.2887117 80.30898392 29.62503082 80.30912994 28.9412384 80.3092804 C26.74985473 80.30858432 24.5585563 80.3008062 22.3671875 80.29296875 C20.84689887 80.29110349 19.32660964 80.28968009 17.80632019 80.28868103 C13.80651182 80.28486438 9.80673981 80.27504135 5.8069458 80.26397705 C1.72481783 80.25374463 -2.35731602 80.24917948 -6.43945312 80.24414062 C-14.4479352 80.23341833 -22.45638076 80.21582841 -30.46484375 80.1953125 C-30.46484375 75.9053125 -30.46484375 71.6153125 -30.46484375 67.1953125 C-27.48940552 67.17343872 -27.48940552 67.17343872 -24.45385742 67.15112305 C-17.90384327 67.09950101 -11.35407696 67.03422317 -4.804286 66.95959759 C-0.83267936 66.91484797 3.13882363 66.87560229 7.1105957 66.84887695 C10.94278245 66.82288931 14.77457125 66.78251997 18.60651207 66.73212624 C20.0693028 66.71542661 21.5321624 66.70393162 22.99503517 66.69769859 C25.04244442 66.68809056 27.08882849 66.6600742 29.13598633 66.62768555 C30.3018074 66.61658249 31.46762848 66.60547943 32.66877747 66.59403992 C35.52076766 66.42723335 35.52076766 66.42723335 37.37260437 64.85578918 C40.02469456 61.06780002 40.18671086 56.65194603 39.53515625 52.1953125 C37.74151714 49.3852779 36.5163469 47.68590782 33.53515625 46.1953125 C32.03565596 46.09228435 30.53179747 46.04944378 29.02880859 46.03759766 C28.0937851 46.02733551 27.1587616 46.01707336 26.19540405 46.00650024 C25.18088165 45.99919891 24.16635925 45.99189758 23.12109375 45.984375 C20.97655505 45.95629217 18.83202391 45.92762763 16.6875 45.8984375 C13.303877 45.8572754 9.92039285 45.82039251 6.53662109 45.79394531 C3.2728141 45.76621706 0.00965031 45.72032862 -3.25390625 45.671875 C-4.25628326 45.66862213 -5.25866028 45.66536926 -6.29141235 45.66201782 C-13.53243762 45.53626709 -18.90305407 44.3000064 -25.21484375 40.5703125 C-30.36830774 35.13054495 -31.73450428 29.54338911 -31.96484375 22.1328125 C-31.74653363 15.37975272 -30.62115044 10.73365054 -26.109375 5.67578125 C-18.74831 -1.17218002 -9.36903958 -0.07353376 0 0 Z " fill="#E8F1F4" transform="translate(774.46484375,456.8046875)"/>
<path d="M0 0 C0.99 0 1.98 0 3 0 C3 335.28 3 670.56 3 1016 C11.91 1016 20.82 1016 30 1016 C30 1016.33 30 1016.66 30 1017 C21.09 1017 12.18 1017 3 1017 C3.33 1018.65 3.66 1020.3 4 1022 C2.68 1022 1.36 1022 0 1022 C0 684.74 0 347.48 0 0 Z " fill="#01050F" transform="translate(5,0)"/>
<path d="M0 0 C4.62 0 9.24 0 14 0 C14 10.89 14 21.78 14 33 C31.49 33 48.98 33 67 33 C67 22.11 67 11.22 67 0 C71.62 0 76.24 0 81 0 C81 26.4 81 52.8 81 80 C76.38 80 71.76 80 67 80 C67 68.45 67 56.9 67 45 C49.51 45 32.02 45 14 45 C14 56.55 14 68.1 14 80 C9.38 80 4.76 80 0 80 C0 53.6 0 27.2 0 0 Z " fill="#E2EBEF" transform="translate(650,457)"/>
<path d="M0 0 C5.61 0 11.22 0 17 0 C17.93199219 1.7428125 18.86398437 3.485625 19.82421875 5.28125 C23.87742816 12.85705713 27.93668764 20.42960714 32 28 C32.5863623 29.0926416 33.17272461 30.1852832 33.77685547 31.31103516 C40.32360206 43.49574035 46.97205594 55.61098659 53.86376953 67.60473633 C54.37665527 68.50216553 54.88954102 69.39959473 55.41796875 70.32421875 C56.09508911 71.5011731 56.09508911 71.5011731 56.78588867 72.7019043 C58 75 58 75 60 80 C54.72 80 49.44 80 44 80 C41.36 75.05 38.72 70.1 36 65 C22.14 64.67 8.28 64.34 -6 64 C-5 59 -5 59 -1 51 C8.9 50.67 18.8 50.34 29 50 C27.370625 47.195 25.74125 44.39 24.0625 41.5 C18.96484043 32.7092162 13.95575854 23.87141961 9 15 C2.81052521 24.96411661 -2.70687321 35.28645645 -7.875 45.8125 C-11.2313382 52.58936866 -14.88977318 59.18742135 -18.64453125 65.75 C-20.0818562 68.27834706 -21.29703432 70.6917457 -22.44921875 73.375 C-23.73996803 76.24152206 -24.54552759 78.02480327 -27 80 C-32.1379212 80.82467162 -36.84970832 80.58972806 -42 80 C-40.51653239 76.06912955 -38.70781299 72.42607905 -36.7265625 68.72265625 C-36.40688507 68.1236853 -36.08720764 67.52471436 -35.75784302 66.90759277 C-34.71618716 64.95781139 -33.67067653 63.01012758 -32.625 61.0625 C-31.89732144 59.70246721 -31.16978369 58.34235906 -30.44238281 56.98217773 C-25.78549564 48.28346762 -21.07185255 39.6168809 -16.32568359 30.96655273 C-10.72598869 20.72741333 -5.36293746 10.36454225 0 0 Z " fill="#E8F0F3" transform="translate(509,457)"/>
<path d="M0 0 C27.39 0 54.78 0 83 0 C83 3.96 83 7.92 83 12 C71.45 12 59.9 12 48 12 C48 34.44 48 56.88 48 80 C43.71 80 39.42 80 35 80 C35 57.56 35 35.12 35 12 C23.45 12 11.9 12 0 12 C0 8.04 0 4.08 0 0 Z " fill="#EBF3F6" transform="translate(557,457)"/>
<path d="M0 0 C5.94 0 11.88 0 18 0 C21.09304393 3.34248296 22.35725161 5.01522059 24.0390625 8.94775391 C25.22180397 11.47370025 26.60938389 13.8310697 28.03125 16.23046875 C32.57078313 23.89334449 32.57078313 23.89334449 34.5234375 27.3046875 C34.97638184 28.08827637 35.42932617 28.87186523 35.89599609 29.67919922 C37.05857243 32.12312903 37.58304028 34.33487837 38 37 C25.50903527 37.27044037 25.50903527 37.27044037 22.09765625 34.3984375 C20.8389414 32.31532475 19.90809073 30.25622542 19 28 C18.24584931 26.69852255 17.47599212 25.4059633 16.6875 24.125 C15 21 15 21 15 19 C14.34 19 13.68 19 13 19 C13 39.13 13 59.26 13 80 C8.71 80 4.42 80 0 80 C0 53.6 0 27.2 0 0 Z " fill="#EAF2F4" transform="translate(353,457)"/>
<path d="M0 0 C1.47823242 -0.0309375 1.47823242 -0.0309375 2.98632812 -0.0625 C9.47321487 -0.09735231 14.08777 0.39071027 19.05078125 4.96875 C19.52902344 5.5565625 20.00726562 6.144375 20.5 6.75 C21.23669922 7.63171875 21.23669922 7.63171875 21.98828125 8.53125 C24.89015542 12.69028789 24.63733187 17.39348187 24.1875 22.25 C22.16326963 28.09777661 18.5510759 31.24225367 13.30810547 34.37182617 C9.19535071 36.07497824 4.70195372 35.57680722 0.3125 35.5625 C-0.66847656 35.57861328 -1.64945313 35.59472656 -2.66015625 35.61132812 C-8.90814715 35.61554404 -13.59919393 35.17473247 -18.421875 30.78515625 C-23.07978732 24.7713448 -24.63177946 20.82172792 -23.8125 13.25 C-21.998534 7.80810201 -18.42987362 4.4716675 -13.8125 1.25 C-9.26701791 -0.2651607 -4.76154489 0.02462337 0 0 Z " fill="#7F828B" transform="translate(967.8125,956.75)"/>
<path d="M0 0 C8.25811948 -0.11596193 16.51589759 -0.20474854 24.77463055 -0.25906086 C28.60973093 -0.2851312 32.44427343 -0.32048034 36.27905273 -0.37719727 C39.98141252 -0.43161164 43.68323649 -0.46143983 47.38596535 -0.47438622 C48.79699958 -0.48360947 50.20800518 -0.50162116 51.61881065 -0.52865028 C53.59803933 -0.56505405 55.5778097 -0.56704333 57.55737305 -0.56762695 C58.68322311 -0.57873001 59.80907318 -0.58983307 60.96903992 -0.60127258 C64.97867147 0.19414585 66.45461046 1.87456224 69 5 C70.32798292 8.98394876 70.22332082 12.64054275 70.25 16.8125 C70.270625 17.60720703 70.29125 18.40191406 70.3125 19.22070312 C70.35293549 25.33151638 69.06622486 29.34342518 65.25 34.25 C60.59083732 37.8737932 55.06329147 38.24975561 49.33032227 38.22705078 C48.04952286 38.22689972 46.76872345 38.22674866 45.44911194 38.22659302 C44.07154175 38.21638289 42.69397319 38.20595096 41.31640625 38.1953125 C39.89151712 38.19157721 38.46662541 38.18873267 37.04173279 38.18673706 C33.31154145 38.17914121 29.5815086 38.15952809 25.85137939 38.1373291 C22.0370091 38.11678291 18.22261293 38.10771667 14.40820312 38.09765625 C6.93873024 38.07627788 -0.53061258 38.04219155 -8 38 C-8 35.03 -8 32.06 -8 29 C-8.66 28.67 -9.32 28.34 -10 28 C-10 31.96 -10 35.92 -10 40 C-10.33 40 -10.66 40 -11 40 C-11 35.71 -11 31.42 -11 27 C-9.01637451 26.98541748 -7.03274902 26.97083496 -4.98901367 26.95581055 C1.56100048 26.90418851 8.11076679 26.83891067 14.66055775 26.76428509 C18.63216439 26.71953547 22.60366738 26.68028979 26.57543945 26.65356445 C30.4076262 26.62757681 34.239415 26.58720747 38.07135582 26.53681374 C39.53414655 26.52011411 40.99700615 26.50861912 42.45987892 26.50238609 C44.50728817 26.49277806 46.55367224 26.4647617 48.60083008 26.43237305 C49.76665115 26.42126999 50.93247223 26.41016693 52.13362122 26.39872742 C54.98561141 26.23192085 54.98561141 26.23192085 56.83744812 24.66047668 C59.48953831 20.87248752 59.65155461 16.45663353 59 12 C57.20636089 9.1899654 55.98119065 7.49059532 53 6 C51.47946576 5.89188209 49.95445044 5.84375463 48.43017578 5.82641602 C47.48224152 5.81292618 46.53430725 5.79943634 45.55764771 5.78553772 C44.01704178 5.76988014 44.01704178 5.76988014 42.4453125 5.75390625 C40.28254802 5.72096912 38.1197877 5.68775745 35.95703125 5.65429688 C32.53795227 5.60685746 29.11889036 5.56242989 25.69970703 5.52319336 C22.4063951 5.48350631 19.11343251 5.43195315 15.8203125 5.37890625 C14.79729034 5.3704921 13.77426819 5.36207794 12.72024536 5.35340881 C11.28888748 5.32844582 11.28888748 5.32844582 9.82861328 5.30297852 C8.99081329 5.29267105 8.15301331 5.28236359 7.28982544 5.27174377 C4.74242982 4.969433 3.13593881 4.41759773 1 3 C0.67 2.01 0.34 1.02 0 0 Z " fill="#9DACB8" transform="translate(755,497)"/>
<path d="M0 0 C4.0830942 -0.11614929 8.16576377 -0.18723457 12.25 -0.25 C13.40886719 -0.28351563 14.56773437 -0.31703125 15.76171875 -0.3515625 C16.87675781 -0.36445313 17.99179688 -0.37734375 19.140625 -0.390625 C20.16704102 -0.41157227 21.19345703 -0.43251953 22.25097656 -0.45410156 C25.70413805 0.1163141 26.87908227 1.27310577 29 4 C29 4.66 29 5.32 29 6 C29.66 6 30.32 6 31 6 C32.41015625 7.43359375 32.41015625 7.43359375 34.0625 9.4375 C36.78893564 12.65344184 39.61859151 15.66878196 42.625 18.625 C45.98306956 21.93714724 49.06628586 25.30919834 52 29 C56.70331575 25.25872611 60.76846712 21.17392299 64.8125 16.75 C65.33827637 16.18941895 65.86405273 15.62883789 66.40576172 15.05126953 C68.86038055 12.42180526 71.10624933 9.85341701 73.22265625 6.93359375 C76.23321146 3.09254055 78.57558263 0.39137548 83.58007812 -0.41650391 C90.07213339 -0.85168326 96.52357717 -0.5523058 103 0 C101.14889338 3.97777388 98.5495614 6.89517275 95.5625 10.0625 C95.03116455 10.63250732 94.4998291 11.20251465 93.95239258 11.78979492 C89.56635582 16.46697769 85.03655869 20.98475611 80.4765625 25.4921875 C77.66539735 28.33882476 75.03493825 31.29909273 72.4375 34.33984375 C70.71819357 36.3254558 68.89435001 38.18142399 67 40 C68.58939426 43.93214301 71.16342502 46.33020346 74.1875 49.25 C77.43535628 52.42201855 80.61742586 55.60309473 83.5625 59.0625 C86.23596826 62.19757429 89.06881809 65.10408042 92 68 C102.8836858 78.7673716 102.8836858 78.7673716 105 83 C101.16771468 83.23433541 97.33728683 83.37506508 93.5 83.5 C91.88351562 83.60054687 91.88351562 83.60054687 90.234375 83.703125 C82.30657641 83.89648594 82.30657641 83.89648594 78.55444336 81.32202148 C76.52695356 79.30760173 74.75329497 77.25460784 73 75 C71.85897615 73.68331672 70.71381915 72.37019052 69.5625 71.0625 C69.00046875 70.40765625 68.4384375 69.7528125 67.859375 69.078125 C65.04762301 65.93557865 62.02462091 63.01489913 59.0234375 60.0546875 C56.83254004 57.82995378 54.86061645 55.50778739 53 53 C51.02 53.495 51.02 53.495 49 54 C49.66 52.68 50.32 51.36 51 50 C55.25209209 51.59959655 57.81463557 54.8168317 60.75 58.125 C61.82027657 59.3098038 62.89189121 60.49340025 63.96484375 61.67578125 C64.74384033 62.53550537 64.74384033 62.53550537 65.53857422 63.41259766 C68.00821688 66.09512632 70.6013221 68.64003541 73.25 71.14453125 C75 73 75 73 76.375 75.26171875 C78.10869279 77.96119149 79.21188295 79.35286624 82 81 C88.27402532 81.99794709 94.69586473 81.45344429 101 81 C93.49905782 72.93385656 85.98570922 64.91293032 78.14453125 57.17578125 C75.48184907 54.4742986 73.00477684 51.64228076 70.5390625 48.76171875 C68.46575944 46.38847084 66.26166261 44.19312738 64 42 C65.37915073 38.84174482 66.95240434 36.92431303 69.5 34.625 C72.64864627 31.58671866 73.8004793 29.24445786 75 25 C76.8125 22.1875 76.8125 22.1875 79 20 C80.2684375 19.7525 80.2684375 19.7525 81.5625 19.5 C82.366875 19.335 83.17125 19.17 84 19 C85.69882448 16.50240018 85.69882448 16.50240018 87 14 C87.66 14 88.32 14 89 14 C89 13.34 89 12.68 89 12 C89.66 12 90.32 12 91 12 C92.52352768 9.06176804 93.78534783 6.07745908 95 3 C86.58602591 2.66194799 86.58602591 2.66194799 78.95703125 5.40234375 C77.44657524 7.18848099 77.44657524 7.18848099 76 10 C76.99 10.99 76.99 10.99 78 12 C76.59921602 13.53547475 75.17879097 15.05305148 73.75 16.5625 C72.96109375 17.40941406 72.1721875 18.25632812 71.359375 19.12890625 C70.58078125 19.74636719 69.8021875 20.36382812 69 21 C68.35353516 20.82146484 67.70707031 20.64292969 67.04101562 20.45898438 C66.36748047 20.30751953 65.69394531 20.15605469 65 20 C62.70983534 21.91934784 60.76718302 23.76347858 58.75 25.9375 C58.19570313 26.51435547 57.64140625 27.09121094 57.0703125 27.68554688 C55.70205855 29.11277729 54.3494962 30.55502058 53 32 C52.57589844 31.59007812 52.15179688 31.18015625 51.71484375 30.7578125 C47.54225772 26.92453566 44.47437501 25.31385 39 24 C38.505 23.01 38.505 23.01 38 22 C38.495 24.475 38.495 24.475 39 27 C35.93882432 29.62386487 35.26826873 30 31 30 C31.66128906 30.59167969 32.32257813 31.18335938 33.00390625 31.79296875 C33.84824219 32.58316406 34.69257813 33.37335938 35.5625 34.1875 C36.40941406 34.96480469 37.25632812 35.74210937 38.12890625 36.54296875 C40 39 40 39 40.03515625 41.53125 C38.77547749 44.53546502 37.26118295 46.1002253 34.875 48.3125 C31.95926905 51.09507158 29.16970712 53.86360903 26.5625 56.9375 C23.06368863 61.02079958 19.26117901 64.75420122 15.4375 68.53125 C12.61887461 71.38601162 9.97667818 74.35428137 7.375 77.40625 C6.30150314 78.65053045 5.16203041 79.83796959 4 81 C15.25656787 82.53419419 15.25656787 82.53419419 25.421875 78.7734375 C27.84023407 76.29217314 29.9940281 73.82247302 32 71 C32 75.70465053 29.77210355 77.8501867 26.53125 81.1015625 C19.54155121 85.87084946 8.00600341 83.58086469 0 83 C0.39687012 82.53746826 0.79374023 82.07493652 1.20263672 81.59838867 C4.45999014 77.80271119 4.45999014 77.80271119 7.6953125 73.98828125 C11.75920787 69.2248629 16.13242004 64.83264184 20.58300781 60.4362793 C24.04112467 57.00485553 27.30537414 53.46844265 30.46484375 49.7578125 C32.84458612 47.03291666 35.41123494 44.52562445 38 42 C36.64768813 38.97022571 35.14519457 36.91527387 32.76953125 34.609375 C32.1350708 33.98651611 31.50061035 33.36365723 30.84692383 32.72192383 C29.83988403 31.74582153 29.83988403 31.74582153 28.8125 30.75 C24.29919186 26.31299999 19.90764794 21.88319861 15.8203125 17.046875 C13.21298961 14.11503552 10.45640711 11.34118692 7.6875 8.5625 C7.15874268 8.02923096 6.62998535 7.49596191 6.08520508 6.9465332 C3.30700033 4.12362326 3.30700033 4.12362326 0 2 C0 1.34 0 0.68 0 0 Z " fill="#5DBCDC" transform="translate(234,454)"/>
<path d="M0 0 C25.08 0 50.16 0 76 0 C76 13.2 76 26.4 76 40 C73.03 40 70.06 40 67 40 C67 28.45 67 16.9 67 5 C66.34 5.33 65.68 5.66 65 6 C63.30456409 6.09051069 61.60556022 6.11754872 59.90771484 6.11352539 C58.31629166 6.11341209 58.31629166 6.11341209 56.69271851 6.11329651 C54.96923691 6.10555458 54.96923691 6.10555458 53.2109375 6.09765625 C52.03737701 6.0962413 50.86381653 6.09482635 49.6546936 6.09336853 C45.89477015 6.08775689 42.13490555 6.07520238 38.375 6.0625 C35.83073002 6.0574865 33.28645912 6.05292333 30.7421875 6.04882812 C24.49475057 6.03863322 18.24744142 6.01905999 12 6 C12 17.55 12 29.1 12 41 C11.34 40.67 10.68 40.34 10 40 C8.47982163 39.95537091 6.95783203 39.96095455 5.4375 40 C3.95881779 40.03785426 2.47844212 40.04629173 1 40 C0 39 0 39 -0.11352539 35.30639648 C-0.11327427 33.66128709 -0.10771184 32.01617243 -0.09765625 30.37109375 C-0.09664917 29.60543091 -0.09564209 28.83976807 -0.09460449 28.05090332 C-0.08935663 25.17975373 -0.07539547 22.30862542 -0.0625 19.4375 C-0.041875 13.023125 -0.02125 6.60875 0 0 Z " fill="#95A4B1" transform="translate(652,496)"/>
<path d="M0 0 C1.51400391 0.01740234 1.51400391 0.01740234 3.05859375 0.03515625 C4.07050781 0.04417969 5.08242188 0.05320312 6.125 0.0625 C6.90746094 0.07410156 7.68992187 0.08570313 8.49609375 0.09765625 C10.17313181 3.02935071 11.83588893 5.96890149 13.49609375 8.91015625 C13.97304688 9.74353516 14.45 10.57691406 14.94140625 11.43554688 C15.39257812 12.23798828 15.84375 13.04042969 16.30859375 13.8671875 C16.72753906 14.60557861 17.14648438 15.34396973 17.578125 16.10473633 C18.49609375 18.09765625 18.49609375 18.09765625 18.49609375 21.09765625 C19.15609375 21.09765625 19.81609375 21.09765625 20.49609375 21.09765625 C20.89441406 21.90589844 21.29273438 22.71414063 21.703125 23.546875 C22.23292969 24.61550781 22.76273438 25.68414063 23.30859375 26.78515625 C23.83066406 27.84089844 24.35273437 28.89664063 24.890625 29.984375 C26.43899143 33.08135287 26.43899143 33.08135287 28.1953125 35.8671875 C29.49609375 38.09765625 29.49609375 38.09765625 29.49609375 40.09765625 C26.04887674 40.57959727 22.92426133 40.78223657 19.49609375 40.09765625 C17.08989866 37.78908722 15.91082501 35.08311575 14.49609375 32.09765625 C13.74512809 30.97988228 12.97612282 29.87385535 12.18359375 28.78515625 C10.49609375 26.09765625 10.49609375 26.09765625 10.49609375 23.09765625 C-2.70390625 23.09765625 -15.90390625 23.09765625 -29.50390625 23.09765625 C-27.52390625 18.64265625 -27.52390625 18.64265625 -25.50390625 14.09765625 C-15.60390625 14.09765625 -5.70390625 14.09765625 4.49609375 14.09765625 C3.83609375 12.44765625 3.17609375 10.79765625 2.49609375 9.09765625 C1.83609375 9.09765625 1.17609375 9.09765625 0.49609375 9.09765625 C-0.82390625 6.45765625 -2.14390625 3.81765625 -3.50390625 1.09765625 C-2.50390625 0.09765625 -2.50390625 0.09765625 0 0 Z " fill="#7E8D9D" transform="translate(535.50390625,494.90234375)"/>
<path d="M0 0 C0.91652344 0.01160156 1.83304687 0.02320313 2.77734375 0.03515625 C3.69644531 0.04417969 4.61554688 0.05320312 5.5625 0.0625 C6.27277344 0.07410156 6.98304688 0.08570313 7.71484375 0.09765625 C6.38714934 3.6635775 4.80067284 6.78192706 2.78125 10.00390625 C2.21470703 10.91269531 1.64816406 11.82148438 1.06445312 12.7578125 C0.47470703 13.69496094 -0.11503906 14.63210938 -0.72265625 15.59765625 C-1.88825135 17.46209549 -3.05362318 19.32667434 -4.21875 21.19140625 C-4.73493896 22.01318359 -5.25112793 22.83496094 -5.78295898 23.68164062 C-6.27868408 24.47892578 -6.77440918 25.27621094 -7.28515625 26.09765625 C-7.82277588 26.90009766 -8.36039551 27.70253906 -8.91430664 28.52929688 C-10.68275319 31.51341149 -10.68275319 31.51341149 -11.28515625 37.09765625 C-15.57515625 37.09765625 -19.86515625 37.09765625 -24.28515625 37.09765625 C-23.62515625 36.43765625 -22.96515625 35.77765625 -22.28515625 35.09765625 C-22.92239624 34.2149707 -22.92239624 34.2149707 -23.57250977 33.31445312 C-28.12423782 26.92316982 -32.25207847 20.362682 -36.22265625 13.59765625 C-37.1053418 12.11652344 -37.1053418 12.11652344 -38.00585938 10.60546875 C-38.56080078 9.66445313 -39.11574219 8.7234375 -39.6875 7.75390625 C-40.18757568 6.90634766 -40.68765137 6.05878906 -41.20288086 5.18554688 C-42.28515625 3.09765625 -42.28515625 3.09765625 -42.28515625 1.09765625 C-38.81156012 0.54160628 -35.74358605 0.37367772 -32.28515625 1.09765625 C-29.44822343 3.59286762 -27.99855087 6.76852162 -26.28515625 10.09765625 C-25.24348522 11.96897677 -24.18482912 13.82982579 -23.12158203 15.68896484 C-22.40421673 16.9492709 -21.69661997 18.21519366 -20.99951172 19.48681641 C-19.25607535 22.88224976 -19.25607535 22.88224976 -16.28515625 25.09765625 C-16.00808838 24.36772461 -15.73102051 23.63779297 -15.44555664 22.88574219 C-14.35975673 20.2768983 -13.13778309 17.92826629 -11.71875 15.48828125 C-11.23341797 14.65167969 -10.74808594 13.81507813 -10.24804688 12.953125 C-9.74466797 12.09332031 -9.24128906 11.23351562 -8.72265625 10.34765625 C-8.21541016 9.47238281 -7.70816406 8.59710938 -7.18554688 7.6953125 C-2.77459192 0.1185723 -2.77459192 0.1185723 0 0 Z " fill="#728599" transform="translate(423.28515625,494.90234375)"/>
<path d="M0 0 C4.62 0 9.24 0 14 0 C14 10.89 14 21.78 14 33 C31.49 33 48.98 33 67 33 C67 33.33 67 33.66 67 34 C66.42006287 34.00586624 65.84012573 34.01173248 65.24261475 34.01777649 C59.20780788 34.08169921 53.17353485 34.16611584 47.13916016 34.26245117 C44.8869531 34.29571024 42.63466249 34.32373908 40.38232422 34.34643555 C37.14514554 34.37996296 33.9087332 34.43227888 30.671875 34.48828125 C29.66445251 34.49467117 28.65703003 34.5010611 27.61907959 34.50764465 C26.67840637 34.52743881 25.73773315 34.54723297 24.76855469 34.56762695 C23.52945343 34.58428154 23.52945343 34.58428154 22.26531982 34.60127258 C19.48596867 34.91444319 19.48596867 34.91444319 16 38 C11.38 38 6.76 38 2 38 C1.67 51.86 1.34 65.72 1 80 C0.67 80 0.34 80 0 80 C0 53.6 0 27.2 0 0 Z " fill="#D9E2E6" transform="translate(650,457)"/>
<path d="M0 0 C8.25811948 -0.11596193 16.51589759 -0.20474854 24.77463055 -0.25906086 C28.60973093 -0.2851312 32.44427343 -0.32048034 36.27905273 -0.37719727 C39.98141252 -0.43161164 43.68323649 -0.46143983 47.38596535 -0.47438622 C48.79699958 -0.48360947 50.20800518 -0.50162116 51.61881065 -0.52865028 C53.59803933 -0.56505405 55.5778097 -0.56704333 57.55737305 -0.56762695 C58.68322311 -0.57873001 59.80907318 -0.58983307 60.96903992 -0.60127258 C64.98599113 0.1955979 66.48516326 1.83667276 69 5 C69.375 8.25 69.375 8.25 69 11 C68.67 11.33 68.34 11.66 68 12 C67.63239269 14.32817964 67.29758419 16.6618385 67 19 C66.05125 19.226875 65.1025 19.45375 64.125 19.6875 C60.82420432 20.66034836 60.82420432 20.66034836 59.875 23.4375 C59.58625 24.283125 59.2975 25.12875 59 26 C56.67273687 28.31491331 55.34276196 28.96247682 52.05133057 29.32279968 C50.33257721 29.28615959 50.33257721 29.28615959 48.57910156 29.2487793 C47.27805481 29.22853195 45.97700806 29.20828461 44.63653564 29.18742371 C43.22122339 29.15001653 41.80591998 29.11227368 40.390625 29.07421875 C38.93905108 29.04617443 37.4874504 29.0194852 36.03582764 28.99409485 C32.22144719 28.92374145 28.4077082 28.83500826 24.59381104 28.74243164 C20.69947974 28.65116063 16.80482259 28.57729111 12.91015625 28.50195312 C5.27299343 28.35165676 -2.36347656 28.18033312 -10 28 C-10 31.96 -10 35.92 -10 40 C-10.33 40 -10.66 40 -11 40 C-11 35.71 -11 31.42 -11 27 C-9.01637451 26.98541748 -7.03274902 26.97083496 -4.98901367 26.95581055 C1.56100048 26.90418851 8.11076679 26.83891067 14.66055775 26.76428509 C18.63216439 26.71953547 22.60366738 26.68028979 26.57543945 26.65356445 C30.4076262 26.62757681 34.239415 26.58720747 38.07135582 26.53681374 C39.53414655 26.52011411 40.99700615 26.50861912 42.45987892 26.50238609 C44.50728817 26.49277806 46.55367224 26.4647617 48.60083008 26.43237305 C49.76665115 26.42126999 50.93247223 26.41016693 52.13362122 26.39872742 C54.98561141 26.23192085 54.98561141 26.23192085 56.83744812 24.66047668 C59.48953831 20.87248752 59.65155461 16.45663353 59 12 C57.20636089 9.1899654 55.98119065 7.49059532 53 6 C51.47946576 5.89188209 49.95445044 5.84375463 48.43017578 5.82641602 C47.48224152 5.81292618 46.53430725 5.79943634 45.55764771 5.78553772 C44.01704178 5.76988014 44.01704178 5.76988014 42.4453125 5.75390625 C40.28254802 5.72096912 38.1197877 5.68775745 35.95703125 5.65429688 C32.53795227 5.60685746 29.11889036 5.56242989 25.69970703 5.52319336 C22.4063951 5.48350631 19.11343251 5.43195315 15.8203125 5.37890625 C14.79729034 5.3704921 13.77426819 5.36207794 12.72024536 5.35340881 C11.28888748 5.32844582 11.28888748 5.32844582 9.82861328 5.30297852 C8.99081329 5.29267105 8.15301331 5.28236359 7.28982544 5.27174377 C4.74242982 4.969433 3.13593881 4.41759773 1 3 C0.67 2.01 0.34 1.02 0 0 Z " fill="#939EA8" transform="translate(755,497)"/>
<path d="M0 0 C3.43705705 -0.14505175 6.87333033 -0.23398014 10.3125 -0.3125 C11.28896484 -0.35439453 12.26542969 -0.39628906 13.27148438 -0.43945312 C15.93307231 -0.48518488 18.37996262 -0.47578949 21 0 C22.94140625 2.31640625 22.94140625 2.31640625 24 5 C25.70377665 6.73442288 25.70377665 6.73442288 27.625 8.25 C32.35754316 12.23483653 36.67324507 16.58310434 41 21 C40.67 21.66 40.34 22.32 40 23 C37.5625 22.625 37.5625 22.625 35 22 C34.505 21.01 34.505 21.01 34 20 C34.495 22.475 34.495 22.475 35 25 C33.4375 26.625 33.4375 26.625 31 28 C25.24746764 27.01637124 22.20639605 24.79950163 18.5625 20.4375 C18.09440918 19.9024585 17.62631836 19.36741699 17.14404297 18.81616211 C16.19781027 17.73269819 15.25759009 16.6439512 14.32373047 15.54980469 C12.45398349 13.36073168 10.53959895 11.21235213 8.625 9.0625 C8.03976563 8.39347656 7.45453125 7.72445313 6.8515625 7.03515625 C4.64464794 4.60941261 2.33257946 2.30452438 0 0 Z " fill="#1D87D8" transform="translate(238,456)"/>
<path d="M0 0 C1.02628772 2.63902557 1.1184495 3.70960769 0.03125 6.375 C-0.4740625 7.24125 -0.979375 8.1075 -1.5 9 C-2.05389404 9.96478271 -2.60778809 10.92956543 -3.1784668 11.92358398 C-3.77957275 12.93880127 -4.38067871 13.95401855 -5 15 C-6.21527992 17.07396323 -7.43012775 19.14817971 -8.64453125 21.22265625 C-9.23057129 22.21797363 -9.81661133 23.21329102 -10.42041016 24.23876953 C-11.72863132 26.52562909 -12.93508181 28.81004223 -14.07421875 31.18359375 C-16.79684149 36.67498538 -16.79684149 36.67498538 -19 39 C-22.53533746 39.94659184 -25.44573012 39.77235643 -29 39 C-25.83156976 30.81488855 -22.05643026 22.9938359 -17.9375 15.25 C-17.2868457 14.01443359 -17.2868457 14.01443359 -16.62304688 12.75390625 C-10.53141633 1.23822111 -10.53141633 1.23822111 -8.1875 0.1875 C-5.448268 -0.04729131 -2.74762532 -0.06244603 0 0 Z " fill="#96A4B2" transform="translate(500,496)"/>
<path d="M0 0 C3.3 0 6.6 0 10 0 C10.02464638 5.82071622 10.0428343 11.64140234 10.05493164 17.4621582 C10.05997267 19.44393441 10.06680538 21.42570689 10.07543945 23.4074707 C10.08751515 26.24952109 10.09323045 29.09152247 10.09765625 31.93359375 C10.10281754 32.82525742 10.10797882 33.71692108 10.11329651 34.63560486 C10.11349177 36.75740601 10.0621003 38.8791078 10 41 C9.505 41.495 9.505 41.495 9 42 C6.03 42 3.06 42 0 42 C0 28.14 0 14.28 0 0 Z " fill="#8E9DAF" transform="translate(447,494)"/>
<path d="M0 0 C5.30460052 2.65230026 8.17509587 4.54670681 11 10 C11.56309577 13.3083686 11.55971295 16.52609852 11.5 19.875 C11.52320313 21.16470703 11.52320313 21.16470703 11.546875 22.48046875 C11.51065609 28.4475348 10.45249889 33.06273221 7 38 C4.96484375 39.83984375 4.96484375 39.83984375 2.9375 40.9375 C2.26589844 41.31777344 1.59429688 41.69804688 0.90234375 42.08984375 C-3.04264796 43.97728331 -6.1628257 44.12164573 -10.4909668 44.11352539 C-11.47185776 44.11374443 -11.47185776 44.11374443 -12.4725647 44.1139679 C-14.63148326 44.11327188 -16.79031528 44.10549408 -18.94921875 44.09765625 C-20.44708713 44.09579096 -21.94495611 44.09436758 -23.44282532 44.09336853 C-27.38345019 44.08955207 -31.32403814 44.0797292 -35.26464844 44.06866455 C-39.28645325 44.05843172 -43.30826404 44.0538669 -47.33007812 44.04882812 C-55.22006901 44.03810616 -63.11002991 44.02104017 -71 44 C-71 40.04 -71 36.08 -71 32 C-50.21 32 -29.42 32 -8 32 C-8 32.33 -8 32.66 -8 33 C-28.13 33 -48.26 33 -69 33 C-69 35.97 -69 38.94 -69 42 C-60.79336386 41.93859675 -52.58709026 41.86135409 -44.38080597 41.76428509 C-40.56964767 41.71969361 -36.75859349 41.68041345 -32.94726562 41.65356445 C-29.26418114 41.62741855 -25.58149981 41.58693827 -21.89866638 41.53681374 C-20.49862205 41.52022083 -19.09850811 41.50865961 -17.69837952 41.50238609 C-5.73413133 41.7603954 -5.73413133 41.7603954 4.63098145 36.52934265 C8.64730308 32.04267448 8.33554101 26.67730538 8.3125 21 C8.32861328 20.2059375 8.34472656 19.411875 8.36132812 18.59375 C8.36525653 13.8796637 7.999045 10.85278773 5 7 C3.14914055 4.72128494 3.14914055 4.72128494 0.2918396 4.75949097 C-1.43357559 4.7661528 -1.43357559 4.7661528 -3.19384766 4.77294922 C-4.49504547 4.77310028 -5.79624329 4.77325134 -7.13687134 4.77340698 C-8.56260327 4.78362107 -9.98833365 4.79405308 -11.4140625 4.8046875 C-12.86851813 4.80841705 -14.32297627 4.8112643 -15.7774353 4.81326294 C-19.60798056 4.820904 -23.43837446 4.84055643 -27.26885986 4.8626709 C-31.17661491 4.88311922 -35.08439439 4.89226248 -38.9921875 4.90234375 C-46.66152738 4.92380198 -54.33074249 4.95794349 -62 5 C-62 4.34 -62 3.68 -62 3 C-31.31 2.505 -31.31 2.505 0 2 C0 1.34 0 0.68 0 0 Z " fill="#E2E6E8" transform="translate(816,493)"/>
<path d="M0 0 C2.84230821 3.48668244 4.82913846 7.33181798 6.875 11.3125 C11.26156308 19.74264772 15.92303755 28.00442462 20.65771484 36.2434082 C21.45943115 37.64659302 21.45943115 37.64659302 22.27734375 39.078125 C22.75421631 39.90731445 23.23108887 40.73650391 23.72241211 41.59082031 C25 44 25 44 27 49 C21.72 49 16.44 49 11 49 C8.36 44.05 5.72 39.1 3 34 C-10.86 33.67 -24.72 33.34 -39 33 C-38 28 -38 28 -34 20 C-19.15 19.505 -19.15 19.505 -4 19 C-4.495 17.02 -4.495 17.02 -5 15 C-3.5 16.3125 -3.5 16.3125 -2 18 C-2 18.99 -2 19.98 -2 21 C-11.9 21 -21.8 21 -32 21 C-32.66 22.98 -33.32 24.96 -34 27 C-34.33 27.66 -34.66 28.32 -35 29 C-15.695 29.495 -15.695 29.495 4 30 C7 36 7 36 8.25390625 38.73828125 C10.79500874 44.00769758 10.79500874 44.00769758 15.61328125 46.86328125 C18.12161144 47.10098722 20.48806131 47.16878639 23 47 C22.60167969 46.38253906 22.20335937 45.76507812 21.79296875 45.12890625 C18.31839322 39.57465778 15.74030922 34.32007034 14 28 C13.34 28 12.68 28 12 28 C10.705826 25.43873936 9.41459216 22.87606642 8.125 20.3125 C7.76019531 19.59126953 7.39539063 18.87003906 7.01953125 18.12695312 C6.66503906 17.42119141 6.31054688 16.71542969 5.9453125 15.98828125 C5.45828857 15.02208862 5.45828857 15.02208862 4.96142578 14.03637695 C3.87499374 11.73522671 2.94508726 9.36271816 2 7 C-3.94 7.495 -3.94 7.495 -10 8 C-10.33 7.34 -10.66 6.68 -11 6 C-7.7 5.67 -4.4 5.34 -1 5 C-0.67 3.35 -0.34 1.7 0 0 Z " fill="#DBDEDF" transform="translate(542,488)"/>
<path d="M0 0 C2.97 0 5.94 0 9 0 C9 13.2 9 26.4 9 40 C6.36 40 3.72 40 1 40 C0 39 0 39 -0.11352539 35.30639648 C-0.11336624 33.66128708 -0.10766988 32.01617269 -0.09765625 30.37109375 C-0.0962413 29.50686295 -0.09482635 28.64263214 -0.09336853 27.75221252 C-0.08775239 24.98060708 -0.07519719 22.2090812 -0.0625 19.4375 C-0.05748708 17.5631522 -0.05292381 15.68880315 -0.04882812 13.81445312 C-0.03777772 9.20960456 -0.0205023 4.60481579 0 0 Z " fill="#93A1B1" transform="translate(594,496)"/>
<path d="M0 0 C2.64 0 5.28 0 8 0 C8 12.87 8 25.74 8 39 C5.03 39 2.06 39 -1 39 C-1.02464849 33.60653012 -1.04283531 28.21309275 -1.05493164 22.81958008 C-1.05997231 20.98331125 -1.06680477 19.14704646 -1.07543945 17.31079102 C-1.08751672 14.67723599 -1.09323081 12.04373384 -1.09765625 9.41015625 C-1.10281754 8.58411392 -1.10797882 7.75807159 -1.11329651 6.90699768 C-1.11349205 4.93763632 -1.06204152 2.96838386 -1 1 C-0.67 0.67 -0.34 0.34 0 0 Z " fill="#8295A8" transform="translate(356,496)"/>
<path d="M0 0 C3.73087965 1.3290258 6.12127119 3.854114 8.875 6.625 C10.10863281 7.85089844 10.10863281 7.85089844 11.3671875 9.1015625 C14.50729604 12.55847725 17.26020404 16.22288586 20 20 C16.81346778 20.20521899 13.62864948 20.32822933 10.4375 20.4375 C9.54224609 20.49615234 8.64699219 20.55480469 7.72460938 20.61523438 C3.85810468 20.71437552 1.10171574 20.76284197 -2.14624023 18.51391602 C-5.34951101 15.35711155 -7.93153412 12.0152573 -10 8 C-9.34 8 -8.68 8 -8 8 C-6.49153848 6.47379124 -6.49153848 6.47379124 -5 4.5625 C-2.20338983 1.10169492 -2.20338983 1.10169492 0 0 Z " fill="#1658AA" transform="translate(316,516)"/>
<path d="M0 0 C0.33 0 0.66 0 1 0 C1 11.22 1 22.44 1 34 C-16.16 34 -33.32 34 -51 34 C-51 23.11 -51 12.22 -51 1 C-50.67 1 -50.34 1 -50 1 C-50 10.57 -50 20.14 -50 30 C-33.83 30 -17.66 30 -1 30 C-1.03956318 20.87521451 -1.03956318 20.87521451 -1.09008789 11.75048828 C-1.09258545 10.61853027 -1.09508301 9.48657227 -1.09765625 8.3203125 C-1.10289307 7.15773926 -1.10812988 5.99516602 -1.11352539 4.79736328 C-1 2 -1 2 0 0 Z " fill="#040714" transform="translate(715,456)"/>
<path d="M0 0 C0.66 0.66 1.32 1.32 2 2 C2.99 1.34 3.98 0.68 5 0 C6.32 0.66 7.64 1.32 9 2 C9 11.9 9 21.8 9 32 C6.03 32 3.06 32 0 32 C0 21.44 0 10.88 0 0 Z " fill="#95A3B2" transform="translate(719,504)"/>
<path d="M0 0 C7.49305014 -0.09273004 14.9860407 -0.16378 22.47953415 -0.20724869 C25.9592187 -0.22811308 29.43851033 -0.25640821 32.91796875 -0.30175781 C36.91930893 -0.35358227 40.92023719 -0.37295453 44.921875 -0.390625 C46.16990906 -0.41127014 47.41794312 -0.43191528 48.70379639 -0.45318604 C49.86469788 -0.45348816 51.02559937 -0.45379028 52.22167969 -0.45410156 C53.75390167 -0.46742523 53.75390167 -0.46742523 55.31707764 -0.48101807 C58.73393852 0.13158699 59.91514436 1.27091161 62 4 C62.3125 7.1875 62.3125 7.1875 62 10 C61.67 10.33 61.34 10.66 61 11 C60.63239269 13.32817964 60.29758419 15.6618385 60 18 C58.35 18.66 56.7 19.32 55 20 C54.91363281 19.26394531 54.82726562 18.52789063 54.73828125 17.76953125 C53.81970199 11.38495308 53.81970199 11.38495308 50.625 5.875 C46.95321894 3.25229924 43.94880296 2.88402765 39.50683594 2.79467773 C38.18591949 2.7647599 38.18591949 2.7647599 36.83831787 2.73423767 C35.89651672 2.71752518 34.95471558 2.70081268 33.984375 2.68359375 C32.52792572 2.6524221 32.52792572 2.6524221 31.04205322 2.62062073 C27.94477315 2.55531138 24.84740932 2.49632677 21.75 2.4375 C19.64842889 2.39429708 17.5468662 2.35068222 15.4453125 2.30664062 C10.29696052 2.19964902 5.14852442 2.0983291 0 2 C0 1.34 0 0.68 0 0 Z " fill="#6E8599" transform="translate(762,498)"/>
<path d="M0 0 C24.75 0 49.5 0 75 0 C75 2.64 75 5.28 75 8 C74.34 8 73.68 8 73 8 C72.67 8.66 72.34 9.32 72 10 C71.01 8.515 71.01 8.515 70 7 C69.01 7.99 68.02 8.98 67 10 C66.34 7.69 65.68 5.38 65 3 C35.3 2.505 35.3 2.505 5 2 C4.67 5.63 4.34 9.26 4 13 C3.01 13.33 2.02 13.66 1 14 C1 15.65 1 17.3 1 19 C0.67 19 0.34 19 0 19 C0 12.73 0 6.46 0 0 Z " fill="#5C7085" transform="translate(653,498)"/>
<path d="M0 0 C3.47493406 -0.55626415 6.5423378 -0.73721927 10 0 C12.81582428 2.54530841 14.28995773 5.64735375 16 9 C16.57105469 9.9590625 17.14210938 10.918125 17.73046875 11.90625 C22.0965627 19.33959989 22.0965627 19.33959989 21.66015625 22.32421875 C21.44230469 22.87722656 21.22445313 23.43023438 21 24 C18.69 24.33 16.38 24.66 14 25 C11.65950844 21.21270762 9.32883358 17.41947015 7 13.625 C6.33226562 12.54476563 5.66453125 11.46453125 4.9765625 10.3515625 C4.34492188 9.3203125 3.71328125 8.2890625 3.0625 7.2265625 C2.18271484 5.79691162 2.18271484 5.79691162 1.28515625 4.33837891 C0 2 0 2 0 0 Z " fill="#62758D" transform="translate(381,496)"/>
<path d="M0 0 C0.99 0.33 1.98 0.66 3 1 C2.38125 1.721875 1.7625 2.44375 1.125 3.1875 C-1.05655683 5.78155502 -1.05655683 5.78155502 -1.84375 8.375 C-3.25725645 11.58404168 -5.09990239 13.39562086 -7.625 15.8125 C-8.44226563 16.60269531 -9.25953125 17.39289063 -10.1015625 18.20703125 C-10.72804688 18.79871094 -11.35453125 19.39039063 -12 20 C-10.41060574 23.93214301 -7.83657498 26.33020346 -4.8125 29.25 C-1.56464372 32.42201855 1.61742586 35.60309473 4.5625 39.0625 C7.23596826 42.19757429 10.06881809 45.10408042 13 48 C23.8836858 58.7673716 23.8836858 58.7673716 26 63 C22.16771468 63.23433541 18.33728683 63.37506508 14.5 63.5 C12.88351562 63.60054687 12.88351562 63.60054687 11.234375 63.703125 C3.30657641 63.89648594 3.30657641 63.89648594 -0.44555664 61.32202148 C-2.47304644 59.30760173 -4.24670503 57.25460784 -6 55 C-7.14102385 53.68331672 -8.28618085 52.37019052 -9.4375 51.0625 C-9.99953125 50.40765625 -10.5615625 49.7528125 -11.140625 49.078125 C-13.95237699 45.93557865 -16.97537909 43.01489913 -19.9765625 40.0546875 C-22.16745996 37.82995378 -24.13938355 35.50778739 -26 33 C-27.98 33.495 -27.98 33.495 -30 34 C-29.34 32.68 -28.68 31.36 -28 30 C-23.74790791 31.59959655 -21.18536443 34.8168317 -18.25 38.125 C-17.17972343 39.3098038 -16.10810879 40.49340025 -15.03515625 41.67578125 C-14.5158252 42.24893066 -13.99649414 42.82208008 -13.46142578 43.41259766 C-10.99178312 46.09512632 -8.3986779 48.64003541 -5.75 51.14453125 C-4 53 -4 53 -2.625 55.26171875 C-0.89130721 57.96119149 0.21188295 59.35286624 3 61 C9.27402532 61.99794709 15.69586473 61.45344429 22 61 C14.49905782 52.93385656 6.98570922 44.91293032 -0.85546875 37.17578125 C-3.51815093 34.4742986 -5.99522316 31.64228076 -8.4609375 28.76171875 C-10.53424056 26.38847084 -12.73833739 24.19312738 -15 22 C-13.62084927 18.84174482 -12.04759566 16.92431303 -9.5 14.625 C-6.35135373 11.58671866 -5.1995207 9.24445786 -4 5 C-1.875 2.125 -1.875 2.125 0 0 Z " fill="#66B0D1" transform="translate(313,474)"/>
<path d="M0 0 C4.29 0 8.58 0 13 0 C13 14.52 13 29.04 13 44 C8.71 44 4.42 44 0 44 C0 29.48 0 14.96 0 0 Z M3 3 C1.58273764 4.18910251 1.58273764 4.18910251 1.88647461 7.60180664 C1.88663375 9.20459856 1.89232937 10.8073956 1.90234375 12.41015625 C1.9037587 13.25219101 1.90517365 14.09422577 1.90663147 14.96177673 C1.91224737 17.66205335 1.92480252 20.36224828 1.9375 23.0625 C1.94251295 24.88867068 1.94707621 26.71484266 1.95117188 28.54101562 C1.96222196 33.02737542 1.97949721 37.51367384 2 42 C4.97 42 7.94 42 11 42 C11 29.13 11 16.26 11 3 C8.36 3 5.72 3 3 3 Z " fill="#E8EEF0" transform="translate(353,493)"/>
<path d="M0 0 C2.19204321 2.80266372 3.99758914 5.64263419 5.69921875 8.765625 C6.18583984 9.65507812 6.67246094 10.54453125 7.17382812 11.4609375 C7.67333984 12.38132812 8.17285156 13.30171875 8.6875 14.25 C9.19861328 15.18585938 9.70972656 16.12171875 10.23632812 17.0859375 C11.49367841 19.3891212 12.74812759 21.69383566 14 24 C16.45647318 21.74534233 18.05012526 19.44154514 19.69921875 16.55078125 C20.18583984 15.70322266 20.67246094 14.85566406 21.17382812 13.98242188 C21.67333984 13.10134766 22.17285156 12.22027344 22.6875 11.3125 C23.19861328 10.41982422 23.70972656 9.52714844 24.23632812 8.60742188 C25.49518858 6.40735735 26.74955596 4.20485553 28 2 C28.67163086 3.67480469 28.67163086 3.67480469 29 6 C27.92016602 8.47363281 27.92016602 8.47363281 26.25390625 11.203125 C25.36928711 12.67265625 25.36928711 12.67265625 24.46679688 14.171875 C23.83837891 15.18765625 23.20996094 16.2034375 22.5625 17.25 C21.62567383 18.796875 21.62567383 18.796875 20.66992188 20.375 C19.12423103 22.92362002 17.56734245 25.46465825 16 28 C12.31666005 26.5556977 11.06648278 24.92724884 9.23828125 21.46484375 C8.75939453 20.57345703 8.28050781 19.68207031 7.78710938 18.76367188 C7.05717773 17.3647168 7.05717773 17.3647168 6.3125 15.9375 C5.3305961 14.09182552 4.34758285 12.24674065 3.36328125 10.40234375 C2.93313721 9.58241943 2.50299316 8.76249512 2.05981445 7.91772461 C1.14421491 6.05192687 1.14421491 6.05192687 0 5 C-1.68183948 4.76712992 -3.3712416 4.58735834 -5.0625 4.4375 C-5.98160156 4.35371094 -6.90070313 4.26992188 -7.84765625 4.18359375 C-8.91306641 4.09271484 -8.91306641 4.09271484 -10 4 C-7.63702812 8.058653 -5.27081018 12.11538892 -2.90161133 16.17041016 C-2.09668715 17.54912404 -1.29264041 18.92835059 -0.48950195 20.30810547 C0.66743377 22.29531271 1.82754952 24.28063321 2.98828125 26.265625 C3.34465164 26.87931946 3.70102203 27.49301392 4.06819153 28.12530518 C6.76284972 32.75293125 6.76284972 32.75293125 10 37 C12.49407252 37.6950739 12.49407252 37.6950739 15.1875 37.75 C16.53908203 37.83507812 16.53908203 37.83507812 17.91796875 37.921875 C18.94857422 37.96054687 18.94857422 37.96054687 20 38 C20 38.33 20 38.66 20 39 C15.71306509 39.97924909 12.25974223 40.20451449 8 39 C4.58663953 35.26237029 2.55161147 31.01705683 0.30566406 26.50976562 C-2.25581329 21.58605822 -5.20088981 16.87823547 -8.0625 12.125 C-9.20278682 10.213061 -10.33978181 8.29915283 -11.47265625 6.3828125 C-11.96000244 5.56184082 -12.44734863 4.74086914 -12.94946289 3.89501953 C-14 2 -14 2 -14 1 C-12.04174127 0.97305149 -10.08337774 0.95362782 -8.125 0.9375 C-7.03445313 0.92589844 -5.94390625 0.91429687 -4.8203125 0.90234375 C-2 1 -2 1 0 2 C0 1.34 0 0.68 0 0 Z " fill="#CED6D9" transform="translate(391,492)"/>
<path d="M0 0 C1.5 1.3125 1.5 1.3125 3 3 C3 3.99 3 4.98 3 6 C-6.9 6 -16.8 6 -27 6 C-27.66 7.98 -28.32 9.96 -29 12 C-29.33 12.66 -29.66 13.32 -30 14 C-10.695 14.495 -10.695 14.495 9 15 C8.67 15.99 8.34 16.98 8 18 C-5.86 18 -19.72 18 -34 18 C-33 13 -33 13 -29 5 C-14.15 4.505 -14.15 4.505 1 4 C0.505 2.02 0.505 2.02 0 0 Z " fill="#BEC5C9" transform="translate(537,503)"/>
<path d="M0 0 C-1.85108386 3.97772497 -4.45029955 6.89529675 -7.4375 10.0625 C-8.22688965 10.90880981 -8.22688965 10.90880981 -9.03222656 11.7722168 C-14.2274434 17.30938745 -19.58367048 22.67962907 -25 28 C-25 24.26161126 -24.11005385 23.67777231 -21.625 21 C-19.51259272 18.705039 -17.73869403 16.60804104 -16 14 C-15.34 14 -14.68 14 -14 14 C-14 13.34 -14 12.68 -14 12 C-13.34 12 -12.68 12 -12 12 C-10.47647232 9.06176804 -9.21465217 6.07745908 -8 3 C-17.94234411 2.70207956 -17.94234411 2.70207956 -26.4375 7.125 C-27.65167576 8.39162396 -28.8393014 9.68419691 -30 11 C-31.32804592 12.31784979 -32.66116856 13.63060888 -34 14.9375 C-35.00260713 15.95577287 -36.00363813 16.97561545 -37 18 C-37 12.52462805 -32.49850194 9.04422195 -28.91186523 5.21850586 C-20.54326803 -2.6468335 -10.74429323 -1.43561544 0 0 Z " fill="#6ACCE6" transform="translate(337,454)"/>
<path d="M0 0 C0.33 0.66 0.66 1.32 1 2 C1.66 2.33 2.32 2.66 3 3 C5.80470403 7.67450672 4.91640867 10.50154799 4 16 C-0.29 16 -4.58 16 -9 16 C-8.34 15.34 -7.68 14.68 -7 14 C-7.3609375 13.51789062 -7.721875 13.03578125 -8.09375 12.5390625 C-8.5578125 11.90742187 -9.021875 11.27578125 -9.5 10.625 C-10.19609375 9.68527344 -10.19609375 9.68527344 -10.90625 8.7265625 C-12 7 -12 7 -12 5 C-10.73637508 4.44172391 -9.4637081 3.90387903 -8.1875 3.375 C-7.47980469 3.07335937 -6.77210938 2.77171875 -6.04296875 2.4609375 C-5.36878906 2.30882812 -4.69460938 2.15671875 -4 2 C-3.01 2.66 -2.02 3.32 -1 4 C-0.67 2.68 -0.34 1.36 0 0 Z " fill="#9FACB8" transform="translate(408,516)"/>
<path d="M0 0 C1.47906892 -0.02689216 2.95827483 -0.04634621 4.4375 -0.0625 C5.26121094 -0.07410156 6.08492187 -0.08570313 6.93359375 -0.09765625 C9 0 9 0 10 1 C10.08874135 4.10251201 10.11518455 7.1826812 10.09765625 10.28515625 C10.0962413 11.21597519 10.09482635 12.14679413 10.09336853 13.1058197 C10.08775172 16.09141191 10.0751964 19.07693029 10.0625 22.0625 C10.05748716 24.08137913 10.05292388 26.10025943 10.04882812 28.11914062 C10.03777683 33.07945572 10.02050095 38.03971532 10 43 C6.04 43 2.08 43 -2 43 C-2 29.47 -2 15.94 -2 2 C-1.34 2 -0.68 2 0 2 C0 1.34 0 0.68 0 0 Z M0 2 C-0.02464775 7.53588533 -0.04283496 13.071739 -0.05493164 18.60766602 C-0.05997244 20.4924373 -0.06680498 22.37720465 -0.07543945 24.26196289 C-0.08751617 26.96501636 -0.09323068 29.66801831 -0.09765625 32.37109375 C-0.10281754 33.21900986 -0.10797882 34.06692596 -0.11329651 34.9405365 C-0.11349195 36.96071068 -0.06206211 38.98077934 0 41 C0.33 41.33 0.66 41.66 1 42 C3.64 42 6.28 42 9 42 C9 28.8 9 15.6 9 2 C6.03 2 3.06 2 0 2 Z " fill="#DCE3E7" transform="translate(594,494)"/>
<path d="M0 0 C0.89954977 2.48799525 1.07261189 3.75170071 0.3203125 6.32421875 C-0.94964381 8.83508008 -2.11066283 10.90594909 -4 13 C-6.39973972 13.76297231 -8.39559032 13.87360909 -10.90625 13.89453125 C-13.6667575 14.03358666 -15.07349289 15.07349289 -17 17 C-16.3891514 12.96692728 -15.10506114 9.84239302 -13.1875 6.25 C-12.68605469 5.28578125 -12.18460937 4.3215625 -11.66796875 3.328125 C-10 1 -10 1 -8.00390625 0.17578125 C-5.32761854 -0.05898083 -2.68454924 -0.06101248 0 0 Z " fill="#6B7E95" transform="translate(500,496)"/>
<path d="M0 0 C2.58835311 3.10602374 4.26652072 6.42258319 6.015625 10.03515625 C7.06082293 12.18866391 7.06082293 12.18866391 8.75 14.875 C10 17 10 17 10 19 C6.59961015 19.35042185 3.3854069 19.5412406 0 19 C-2.625 16 -2.625 16 -4 13 C-3.62875 12.484375 -3.2575 11.96875 -2.875 11.4375 C-1.59668351 7.87647549 -2.79449265 5.4825768 -4 2 C-3.34 1.67 -2.68 1.34 -2 1 C-1.34 1.33 -0.68 1.66 0 2 C0 1.34 0 0.68 0 0 Z " fill="#9AA7B3" transform="translate(555,516)"/>
<path d="M0 0 C0.66 0.66 1.32 1.32 2 2 C4.43252661 2.46162427 4.43252661 2.46162427 7.125 2.625 C8.03507812 2.69976562 8.94515625 2.77453125 9.8828125 2.8515625 C10.58148438 2.90054687 11.28015625 2.94953125 12 3 C11.34 4.32 10.68 5.64 10 7 C9.505 6.505 9.505 6.505 9 6 C7.31391034 5.92794489 5.62499341 5.91613932 3.9375 5.9375 C3.01839844 5.94652344 2.09929687 5.95554687 1.15234375 5.96484375 C0.44207031 5.97644531 -0.26820313 5.98804688 -1 6 C-1.41100952 7.08112061 -1.41100952 7.08112061 -1.83032227 8.18408203 C-2.97100735 10.9302022 -4.27046122 13.45711074 -5.71484375 16.0546875 C-6.23626953 16.99957031 -6.75769531 17.94445312 -7.29492188 18.91796875 C-8.38573648 20.88169445 -9.47687976 22.8452376 -10.56835938 24.80859375 C-13.31951054 29.79526726 -15.86554433 34.71966358 -18 40 C-18.65288627 41.34013497 -19.31225595 42.67741528 -20 44 C-18.35 44 -16.7 44 -15 44 C-15 44.33 -15 44.66 -15 45 C-19.455 45.495 -19.455 45.495 -24 46 C-22.47142029 41.9285583 -20.56813808 38.16804007 -18.515625 34.3359375 C-18.17754822 33.7032193 -17.83947144 33.0705011 -17.4911499 32.41860962 C-16.41319947 30.40275988 -15.33161236 28.38888682 -14.25 26.375 C-13.53883341 25.04569545 -12.82789393 23.71626938 -12.1171875 22.38671875 C-8.11412445 14.90475369 -4.07807103 7.4414085 0 0 Z " fill="#D1DADC" transform="translate(491,491)"/>
<path d="M0 0 C2.97 0 5.94 0 9 0 C9 5.28 9 10.56 9 16 C7 12 7 12 7 8 C6.01 8.495 6.01 8.495 5 9 C4.30772968 11.80980673 4.30772968 11.80980673 3.875 15.0625 C3.70742188 16.16722656 3.53984375 17.27195312 3.3671875 18.41015625 C3.24601563 19.26480469 3.12484375 20.11945312 3 21 C2.34 21 1.68 21 1 21 C-0.17426264 18.65147472 -0.11508173 17.26225935 -0.09765625 14.6484375 C-0.09443359 13.79765625 -0.09121094 12.946875 -0.08789062 12.0703125 C-0.07951172 11.18085938 -0.07113281 10.29140625 -0.0625 9.375 C-0.05798828 8.4778125 -0.05347656 7.580625 -0.04882812 6.65625 C-0.03702611 4.43747169 -0.01909039 2.21872757 0 0 Z " fill="#657991" transform="translate(594,496)"/>
<path d="M0 0 C0.66 0.33 1.32 0.66 2 1 C-3.77472465 12.08255667 -9.58370549 23.14048558 -15.77734375 33.99609375 C-17.15833945 36.42818381 -18.35355532 38.78700495 -19.50390625 41.34765625 C-21.70591221 46.0211674 -21.70591221 46.0211674 -24 48 C-28.45054131 48.81210358 -32.532391 48.596565 -37 48 C-37 47.67 -37 47.34 -37 47 C-31.06 46.505 -31.06 46.505 -25 46 C-24.75121094 45.14664063 -24.50242187 44.29328125 -24.24609375 43.4140625 C-22.91219994 39.75944435 -21.12196024 36.64685904 -19.0625 33.375 C-13.35885457 24.1106008 -8.18692237 14.56023851 -3 5 C-5.31 5 -7.62 5 -10 5 C-10 4.67 -10 4.34 -10 4 C-7.36 4 -4.72 4 -2 4 C-2 3.34 -2 2.68 -2 2 C-1.34 2 -0.68 2 0 2 C0 1.34 0 0.68 0 0 Z " fill="#DEE2E1" transform="translate(506,489)"/>
<path d="M0 0 C2 2 2 2 2.1953125 4.6015625 C2.17210937 5.59929688 2.14890625 6.59703125 2.125 7.625 C2.10695313 8.62789062 2.08890625 9.63078125 2.0703125 10.6640625 C2.03550781 11.82035156 2.03550781 11.82035156 2 13 C0.37536158 13.05395478 -1.24978541 13.09277195 -2.875 13.125 C-3.77992188 13.14820313 -4.68484375 13.17140625 -5.6171875 13.1953125 C-8 13 -8 13 -10 11 C-9.44444444 6.44444444 -9.44444444 6.44444444 -8 5 C-5.66702567 4.95907063 -3.33294775 4.95758277 -1 5 C-1 4.34 -1 3.68 -1 3 C-3.31 3.33 -5.62 3.66 -8 4 C-8.33 3.01 -8.66 2.02 -9 1 C-5.98675805 -0.50662097 -3.31713623 -0.17770373 0 0 Z " fill="#101627" transform="translate(968,970)"/>
<path d="M0 0 C5.1409902 2.5704951 8.68236017 4.49560541 11 10 C11.02091536 14.38699605 10.59285595 18.65668573 10 23 C9.67 23 9.34 23 9 23 C8.94392578 21.89591797 8.94392578 21.89591797 8.88671875 20.76953125 C8.43947503 14.13103132 7.84007031 9.84007031 3 5 C0.16629807 4.7063499 0.16629807 4.7063499 -3.19384766 4.77294922 C-4.49504547 4.77310028 -5.79624329 4.77325134 -7.13687134 4.77340698 C-8.56260327 4.78362107 -9.98833365 4.79405308 -11.4140625 4.8046875 C-12.86851813 4.80841705 -14.32297627 4.8112643 -15.7774353 4.81326294 C-19.60798056 4.820904 -23.43837446 4.84055643 -27.26885986 4.8626709 C-31.17661491 4.88311922 -35.08439439 4.89226248 -38.9921875 4.90234375 C-46.66152738 4.92380198 -54.33074249 4.95794349 -62 5 C-62 4.34 -62 3.68 -62 3 C-31.31 2.505 -31.31 2.505 0 2 C0 1.34 0 0.68 0 0 Z " fill="#BDCBD5" transform="translate(816,493)"/>
<path d="M0 0 C1.43861294 0.08746284 2.87597508 0.19565348 4.3125 0.3125 C5.11300781 0.37050781 5.91351562 0.42851562 6.73828125 0.48828125 C9.36272334 1.08206694 10.30820672 1.95780294 12 4 C9.29710692 5.35144654 7.19930194 5.11975165 4.17333984 5.11352539 C2.95222504 5.11344986 1.73111023 5.11337433 0.47299194 5.11329651 C-0.86435995 5.10818952 -2.20171143 5.10297352 -3.5390625 5.09765625 C-4.90383859 5.0957914 -6.26861534 5.09436781 -7.63339233 5.09336853 C-11.22715093 5.08954863 -14.82086917 5.07972283 -18.41461182 5.06866455 C-22.08108982 5.05843911 -25.74757435 5.05386848 -29.4140625 5.04882812 C-36.60939341 5.0381001 -43.80469105 5.02102999 -51 5 C-51 5.66 -51 6.32 -51 7 C-49.68 7.66 -48.36 8.32 -47 9 C-51.85222386 8.55888874 -53.73747692 7.54622073 -57 4 C-56.31539703 3.99413376 -55.63079407 3.98826752 -54.92544556 3.98222351 C-47.82046291 3.91844734 -40.71593988 3.8340693 -33.61132812 3.73754883 C-30.95741829 3.70422867 -28.30343637 3.67621915 -25.64941406 3.65356445 C-21.84148341 3.62014908 -18.03421762 3.56783915 -14.2265625 3.51171875 C-12.43745956 3.50213387 -12.43745956 3.50213387 -10.61221313 3.49235535 C-9.51122284 3.47256119 -8.41023254 3.45276703 -7.27587891 3.43237305 C-6.30325104 3.42126999 -5.33062317 3.41016693 -4.32852173 3.39872742 C-3.56010956 3.26714737 -2.79169739 3.13556732 -2 3 C-1.34 2.01 -0.68 1.02 0 0 Z " fill="#DFE7ED" transform="translate(805,491)"/>
<path d="M0 0 C0.66 0.33 1.32 0.66 2 1 C2 1.66 2 2.32 2 3 C3.546875 3.0309375 3.546875 3.0309375 5.125 3.0625 C10.24419815 4.30101568 12.0329289 6.83740574 15 11 C14.20335937 10.97679687 13.40671875 10.95359375 12.5859375 10.9296875 C4.605026 10.76151408 4.605026 10.76151408 -3 13 C-4.32 11.35 -5.64 9.7 -7 8 C-6.236875 8.061875 -5.47375 8.12375 -4.6875 8.1875 C-2.01032367 8.21449679 -2.01032367 8.21449679 -0.125 6.8125 C1.27887164 4.97003101 1.27887164 4.97003101 0.6875 2.3125 C0.460625 1.549375 0.23375 0.78625 0 0 Z " fill="#154EAC" transform="translate(271,475)"/>
<path d="M0 0 C2.97 0 5.94 0 9 0 C9.08076963 2.45898655 9.14037143 4.91533742 9.1875 7.375 C9.22520508 8.42300781 9.22520508 8.42300781 9.26367188 9.4921875 C9.29296875 11.5234375 9.29296875 11.5234375 9 15 C8.01 15.66 7.02 16.32 6 17 C5.67 14.36 5.34 11.72 5 9 C2.83656989 11.03268602 2.83656989 11.03268602 1 14 C-0.21379503 9.29654425 -0.07202527 4.82569313 0 0 Z " fill="#657A93" transform="translate(447,496)"/>
<path d="M0 0 C3.95119422 -0.04588484 7.90171066 -0.08571688 11.85302734 -0.10986328 C13.8591136 -0.12488107 15.86511324 -0.15028981 17.87109375 -0.17578125 C19.12792969 -0.18222656 20.38476562 -0.18867188 21.6796875 -0.1953125 C22.84226074 -0.20578613 24.00483398 -0.21625977 25.20263672 -0.22705078 C28 0 28 0 30 2 C21.75 2 13.5 2 5 2 C4.67 5.63 4.34 9.26 4 13 C3.01 13.33 2.02 13.66 1 14 C1 15.65 1 17.3 1 19 C0.67 19 0.34 19 0 19 C0 12.73 0 6.46 0 0 Z " fill="#5B7188" transform="translate(653,498)"/>
<path d="M0 0 C7.71484375 -0.09765625 7.71484375 -0.09765625 10 0 C12.17782681 2.17782681 11.26089916 7.25103078 11.31640625 10.28515625 C11.33718735 11.21597519 11.35796844 12.14679413 11.37937927 13.1058197 C11.44497931 16.09130182 11.50380802 19.07687484 11.5625 22.0625 C11.6056753 24.08138976 11.64928925 26.1002702 11.69335938 28.11914062 C11.80067129 33.07933297 11.90190888 38.03961709 12 43 C7.71 43 3.42 43 -1 43 C-0.34 42.34 0.32 41.68 1 41 C3.97 41 6.94 41 10 41 C10 28.13 10 15.26 10 2 C7.36 2.33 4.72 2.66 2 3 C1.67 8.28 1.34 13.56 1 19 C0.67 19 0.34 19 0 19 C0 12.73 0 6.46 0 0 Z " fill="#C5CFD5" transform="translate(354,494)"/>
<path d="M0 0 C0 3 0 3 -2.16015625 5.41796875 C-3.1210539 6.34796181 -4.08893954 7.27077135 -5.0625 8.1875 C-6.07487338 9.167253 -7.08528586 10.14903616 -8.09375 11.1328125 C-8.59003906 11.6165332 -9.08632812 12.10025391 -9.59765625 12.59863281 C-12.09238689 15.09162617 -14.37695483 17.75627206 -16.66015625 20.44140625 C-17.72064136 21.67503179 -18.84968251 22.84968251 -20 24 C-8.74343213 25.53419419 -8.74343213 25.53419419 1.421875 21.7734375 C3.84023407 19.29217314 5.9940281 16.82247302 8 14 C8 18.70465053 5.77210355 20.8501867 2.53125 24.1015625 C-4.45844879 28.87084946 -15.99399659 26.58086469 -24 26 C-23.40578247 25.30729004 -23.40578247 25.30729004 -22.79956055 24.60058594 C-22.27144775 23.98473633 -21.74333496 23.36888672 -21.19921875 22.734375 C-20.64927246 22.09306641 -20.09932617 21.45175781 -19.53271484 20.79101562 C-18.44090115 19.51520402 -17.35365649 18.2354763 -16.26953125 16.953125 C-11.16378019 10.98500848 -5.59479424 5.50373972 0 0 Z " fill="#67C4E3" transform="translate(258,511)"/>
<path d="M0 0 C3 0 3 0 4.5 1.25 C4.995 1.8275 5.49 2.405 6 3 C6.5775 3.639375 7.155 4.27875 7.75 4.9375 C9 7 9 7 8.6875 9.25 C8.460625 9.8275 8.23375 10.405 8 11 C5.69 11.33 3.38 11.66 1 12 C-0.65 9.03 -2.3 6.06 -4 3 C-2.68 2.67 -1.36 2.34 0 2 C0 1.34 0 0.68 0 0 Z " fill="#7D8DA3" transform="translate(394,509)"/>
<path d="M0 0 C0.99 0.33 1.98 0.66 3 1 C2.38125 1.721875 1.7625 2.44375 1.125 3.1875 C-1.05655683 5.78155502 -1.05655683 5.78155502 -1.84375 8.375 C-3.25725645 11.58404168 -5.09990239 13.39562086 -7.625 15.8125 C-8.44226563 16.60269531 -9.25953125 17.39289063 -10.1015625 18.20703125 C-10.72804688 18.79871094 -11.35453125 19.39039063 -12 20 C-10.38989473 24.07376031 -7.46177729 26.76507069 -4.375 29.75 C-3.859375 30.25660156 -3.34375 30.76320313 -2.8125 31.28515625 C-1.54616661 32.52803902 -0.2736856 33.76465276 1 35 C0.67 35.99 0.34 36.98 0 38 C-0.83144531 37.09636719 -1.66289062 36.19273437 -2.51953125 35.26171875 C-3.61715423 34.07028184 -4.71481232 32.87887729 -5.8125 31.6875 C-6.35970703 31.09259766 -6.90691406 30.49769531 -7.47070312 29.88476562 C-8.26831055 29.01948242 -8.26831055 29.01948242 -9.08203125 28.13671875 C-9.81256714 27.34334106 -9.81256714 27.34334106 -10.55786133 26.53393555 C-12.00872793 24.9907165 -13.49453768 23.48984144 -15 22 C-13.62084927 18.84174482 -12.04759566 16.92431303 -9.5 14.625 C-6.35135373 11.58671866 -5.1995207 9.24445786 -4 5 C-1.875 2.125 -1.875 2.125 0 0 Z " fill="#589BBF" transform="translate(313,474)"/>
<path d="M0 0 C13.53 0 27.06 0 41 0 C40.34 1.32 39.68 2.64 39 4 C34.38 4 29.76 4 25 4 C24.67 3.01 24.34 2.02 24 1 C16.08 1 8.16 1 0 1 C0 0.67 0 0.34 0 0 Z " fill="#F3F6F9" transform="translate(764,491)"/>
<path d="M0 0 C3.63 0 7.26 0 11 0 C11 3.89830732 9.6402118 5.64789205 7.640625 8.98828125 C7.12214996 9.85950874 7.12214996 9.85950874 6.59320068 10.74833679 C5.48489894 12.60678176 4.36741596 14.45952406 3.25 16.3125 C2.51245332 17.54848965 1.77546783 18.78481436 1.0390625 20.02148438 C-2.19321005 25.43041153 -5.4727916 30.77830029 -9 36 C-10 33 -10 33 -8.90771484 30.67504883 C-8.34777832 29.77810303 -7.7878418 28.88115723 -7.2109375 27.95703125 C-6.59863281 26.96509766 -5.98632812 25.97316406 -5.35546875 24.95117188 C-4.70191406 23.91541016 -4.04835938 22.87964844 -3.375 21.8125 C-2.74464844 20.79607422 -2.11429687 19.77964844 -1.46484375 18.73242188 C0.34684373 15.81526604 2.17158764 12.90669368 4 10 C4.9875084 8.42090375 5.97456096 6.84152225 6.9609375 5.26171875 C7.97027344 3.64716797 7.97027344 3.64716797 9 2 C6.03 2 3.06 2 0 2 C0 1.34 0 0.68 0 0 Z " fill="#D8DDDD" transform="translate(422,493)"/>
<path d="M0 0 C0.33 0 0.66 0 1 0 C1 3.63 1 7.26 1 11 C8.92 11.33 16.84 11.66 25 12 C25 12.33 25 12.66 25 13 C24.35973877 13.02505615 23.71947754 13.0501123 23.05981445 13.07592773 C20.14386274 13.1923546 17.2281971 13.31486867 14.3125 13.4375 C13.30509766 13.47681641 12.29769531 13.51613281 11.25976562 13.55664062 C10.28330078 13.59853516 9.30683594 13.64042969 8.30078125 13.68359375 C7.40528564 13.72025146 6.50979004 13.75690918 5.5871582 13.79467773 C2.9600685 13.94376664 2.9600685 13.94376664 0.28198242 14.59790039 C-2 15 -2 15 -3.8125 13.75 C-5 12 -5 12 -5 9 C-4.01 9 -3.02 9 -2 9 C-1.7834375 7.0509375 -1.7834375 7.0509375 -1.5625 5.0625 C-1.125 1.125 -1.125 1.125 0 0 Z " fill="#030715" transform="translate(763,474)"/>
<path d="M0 0 C21.12 0 42.24 0 64 0 C64 0.33 64 0.66 64 1 C45.19 1 26.38 1 7 1 C7 1.66 7 2.32 7 3 C5.02 3.33 3.04 3.66 1 4 C0.67 2.68 0.34 1.36 0 0 Z " fill="#8BA1B2" transform="translate(755,497)"/>
<path d="M0 0 C1.485 0.99 1.485 0.99 3 2 C3 2.66 3 3.32 3 4 C3.99 4.33 4.98 4.66 6 5 C7.578125 6.6015625 7.578125 6.6015625 9.25 8.625 C12.20531267 12.1549568 15.33866895 15.2445767 18.8125 18.26171875 C20 20 20 20 19.953125 22.42578125 C18.77204223 25.61567284 17.221648 27.17566877 14.75 29.5 C13.94175781 30.27214844 13.13351562 31.04429687 12.30078125 31.83984375 C11.16189453 32.90912109 11.16189453 32.90912109 10 34 C8.97448402 35.01612911 7.95246662 36.03583348 6.9375 37.0625 C6.298125 37.701875 5.65875 38.34125 5 39 C6.42300113 34.31095412 9.15696334 31.48389525 12.625 28.1875 C13.3984375 27.43436523 13.3984375 27.43436523 14.1875 26.66601562 C15.45159154 25.43703773 16.72488806 24.21753999 18 23 C16.61802924 19.86724637 15.0324325 17.82298675 12.55859375 15.46875 C11.89279297 14.82292969 11.22699219 14.17710937 10.54101562 13.51171875 C9.1366303 12.16862044 7.73037218 10.8274777 6.32226562 9.48828125 C5.65775391 8.84246094 4.99324219 8.19664062 4.30859375 7.53125 C3.69814209 6.94923828 3.08769043 6.36722656 2.45874023 5.76757812 C0.86468759 3.83603986 0.40325465 2.44706067 0 0 Z " fill="#4899C6" transform="translate(254,473)"/>
<path d="M0 0 C0.75 1.75 0.75 1.75 1 4 C-0.9375 6.25 -0.9375 6.25 -3 8 C-4.98 7.34 -6.96 6.68 -9 6 C-9 6.66 -9 7.32 -9 8 C-9.99 8 -10.98 8 -12 8 C-11.125 3.25 -11.125 3.25 -10 1 C-6.70581806 -0.22006738 -3.47634765 -0.0790079 0 0 Z " fill="#556A82" transform="translate(500,496)"/>
<path d="M0 0 C1.65 0 3.3 0 5 0 C1.9336729 7.34570668 -2.54882608 12.03043627 -8.25 17.5 C-9.09046875 18.32242187 -9.9309375 19.14484375 -10.796875 19.9921875 C-12.85573297 22.00425325 -14.92335815 24.00632172 -17 26 C-17 22.26161126 -16.11005385 21.67777231 -13.625 19 C-11.51259272 16.705039 -9.73869403 14.60804104 -8 12 C-7.34 12 -6.68 12 -6 12 C-6 11.34 -6 10.68 -6 10 C-5.34 10 -4.68 10 -4 10 C-1.24157232 5.21274202 -1.24157232 5.21274202 0 0 Z " fill="#3EB5DE" transform="translate(329,456)"/>
<path d="M0 0 C0 3 0 3 -1.5 4.6875 C-1.995 5.120625 -2.49 5.55375 -3 6 C-2.34 6.66 -1.68 7.32 -1 8 C-3.97 10.97 -6.94 13.94 -10 17 C-11.98 16.34 -13.96 15.68 -16 15 C-14.32337646 13.32337646 -12.62896879 11.82968789 -10.8125 10.3125 C-7.00312986 7.07133423 -3.48687851 3.58226424 0 0 Z " fill="#259EE3" transform="translate(313,458)"/>
<path d="M0 0 C0.928125 0.20625 1.85625 0.4125 2.8125 0.625 C2.02875 1.12 1.245 1.615 0.4375 2.125 C-3.08781449 5.48244237 -3.32086821 7.89791749 -4.1875 12.625 C-5.5075 12.955 -6.8275 13.285 -8.1875 13.625 C-8.48280201 4.7659396 -8.48280201 4.7659396 -6.1875 1.625 C-3.1875 -0.375 -3.1875 -0.375 0 0 Z " fill="#0F1322" transform="translate(765.1875,470.375)"/>
<path d="M0 0 C0.33 0 0.66 0 1 0 C1.74480771 18.20641069 1.74480771 18.20641069 -1.59375 23.4765625 C-4.23933311 26.34261086 -7.23928233 28.83946603 -11 30 C-13.25 29.1171875 -13.25 29.1171875 -15 28 C-14.45730469 27.81824219 -13.91460938 27.63648438 -13.35546875 27.44921875 C-12.64003906 27.19785156 -11.92460938 26.94648437 -11.1875 26.6875 C-10.12595703 26.32205078 -10.12595703 26.32205078 -9.04296875 25.94921875 C-5.9239113 24.50001997 -4.4712482 22.90130337 -2.8828125 19.86328125 C-1.69362828 16.00632535 -1.28458301 12.19268464 -0.875 8.1875 C-0.74544922 7.00510742 -0.74544922 7.00510742 -0.61328125 5.79882812 C-0.40248936 3.86656916 -0.20037104 1.93336737 0 0 Z " fill="#E2E5E5" transform="translate(826,506)"/>
<path d="M0 0 C0.66 0.66 1.32 1.32 2 2 C4.43252661 2.46162427 4.43252661 2.46162427 7.125 2.625 C8.03507812 2.69976562 8.94515625 2.77453125 9.8828125 2.8515625 C10.93082031 2.92503906 10.93082031 2.92503906 12 3 C11.34 4.32 10.68 5.64 10 7 C9.67 6.67 9.34 6.34 9 6 C7.31391034 5.92794489 5.62499341 5.91613932 3.9375 5.9375 C3.01839844 5.94652344 2.09929687 5.95554687 1.15234375 5.96484375 C0.44207031 5.97644531 -0.26820313 5.98804688 -1 6 C-1.268125 6.70125 -1.53625 7.4025 -1.8125 8.125 C-3.0681449 11.1649824 -4.50235123 14.0727774 -6 17 C-6.66 16.34 -7.32 15.68 -8 15 C-5.36 10.05 -2.72 5.1 0 0 Z " fill="#B1BECA" transform="translate(491,491)"/>
<path d="M0 0 C0.33 0 0.66 0 1 0 C1.02888146 3.31248187 1.04675799 6.62493167 1.0625 9.9375 C1.07087891 10.88302734 1.07925781 11.82855469 1.08789062 12.80273438 C1.09111328 13.70185547 1.09433594 14.60097656 1.09765625 15.52734375 C1.10289307 16.35999756 1.10812988 17.19265137 1.11352539 18.05053711 C1 20 1 20 0 21 C-3.00331018 21.14193337 -5.99217134 21.04236378 -9 21 C-9 18.03 -9 15.06 -9 12 C-6 14 -6 14 -5.3125 16.625 C-5.209375 17.40875 -5.10625 18.1925 -5 19 C-4.01 19.33 -3.02 19.66 -2 20 C-2 18.02 -2 16.04 -2 14 C-1.34 14 -0.68 14 0 14 C0 9.38 0 4.76 0 0 Z " fill="#B0BBC3" transform="translate(456,515)"/>
<path d="M0 0 C2.50922495 2.30128326 4.15777033 4.70492497 5.8828125 7.6328125 C6.41003906 8.52097656 6.93726563 9.40914062 7.48046875 10.32421875 C8.02316406 11.24847656 8.56585938 12.17273438 9.125 13.125 C10.20972002 14.96165708 11.29559527 16.79763255 12.3828125 18.6328125 C12.86121582 19.44637207 13.33961914 20.25993164 13.83251953 21.09814453 C14.86031203 22.93787674 14.86031203 22.93787674 16 24 C17.68183948 24.23287008 19.3712416 24.41264166 21.0625 24.5625 C21.98160156 24.64628906 22.90070313 24.73007812 23.84765625 24.81640625 C24.91306641 24.90728516 24.91306641 24.90728516 26 25 C26 25.33 26 25.66 26 26 C21.70288355 26.98157482 18.25721843 27.26386172 14 26 C10.30573703 22.38072741 8.17027583 17.43144384 5.92675781 12.83789062 C4.76078292 10.52559901 3.38220963 8.39688693 1.9375 6.25 C0 3 0 3 0 0 Z " fill="#D0D8D7" transform="translate(385,505)"/>
<path d="M0 0 C1.32 0.66 2.64 1.32 4 2 C1.2387732 7.28234693 -1.52020256 9.12234494 -6.9765625 11.43359375 C-9 12 -9 12 -11 11 C-7.37 7.37 -3.74 3.74 0 0 Z " fill="#125FBD" transform="translate(299,473)"/>
<path d="M0 0 C0.66 0.99 1.32 1.98 2 3 C1.34 3.66 0.68 4.32 0 5 C-2.3828125 4.9765625 -2.3828125 4.9765625 -5.125 4.625 C-6.03507812 4.51414062 -6.94515625 4.40328125 -7.8828125 4.2890625 C-8.93082031 4.14597656 -8.93082031 4.14597656 -10 4 C-8.9790625 5.6396875 -8.9790625 5.6396875 -7.9375 7.3125 C-6.77734375 9.17578125 -6.77734375 9.17578125 -6 11 C-6.33 11.99 -6.66 12.98 -7 14 C-8.16927543 12.02237345 -9.33535573 10.04285742 -10.5 8.0625 C-11.1496875 6.96035156 -11.799375 5.85820312 -12.46875 4.72265625 C-14 2 -14 2 -14 1 C-12.04174127 0.97305149 -10.08337774 0.95362782 -8.125 0.9375 C-7.03445313 0.92589844 -5.94390625 0.91429687 -4.8203125 0.90234375 C-2 1 -2 1 0 2 C0 1.34 0 0.68 0 0 Z " fill="#BFCCD4" transform="translate(391,492)"/>
<path d="M0 0 C6.93 0 13.86 0 21 0 C21 0.33 21 0.66 21 1 C12.585 1.495 12.585 1.495 4 2 C5.98 3.65 7.96 5.3 10 7 C11.28706132 8.31899223 12.54292543 9.66993462 13.75 11.0625 C14.60851562 12.03896484 14.60851562 12.03896484 15.484375 13.03515625 C16.96098901 14.94942647 18.00239236 16.80428514 19 19 C14.27100612 15.13082319 9.88730678 10.99697964 5.5625 6.6875 C5.01819336 6.14770508 4.47388672 5.60791016 3.91308594 5.05175781 C0 1.12372693 0 1.12372693 0 0 Z " fill="#68D3EF" transform="translate(235,455)"/>
<path d="M0 0 C1.46373047 0.16628906 1.46373047 0.16628906 2.95703125 0.3359375 C3.69308594 0.43132812 4.42914063 0.52671875 5.1875 0.625 C2.46252826 2.76279164 0.54416348 3.84177852 -2.8125 4.625 C-4.86520463 6.46688612 -4.86520463 6.46688612 -5.8125 8.625 C-7.52134005 7.00160195 -9.18696717 5.33180947 -10.8125 3.625 C-10.8125 2.965 -10.8125 2.305 -10.8125 1.625 C-6.91531829 -0.24165742 -4.27165815 -0.51465761 0 0 Z " fill="#0E358D" transform="translate(279.8125,485.375)"/>
<path d="M0 0 C4.95 0 9.9 0 15 0 C15 1.98 15 3.96 15 6 C14.67 5.01 14.34 4.02 14 3 C13.01 3.495 13.01 3.495 12 4 C9.6670134 4.04022391 7.33293334 4.04320247 5 4 C5 3.34 5 2.68 5 2 C3.35 2 1.7 2 0 2 C0 1.34 0 0.68 0 0 Z M-2 3 C-0.68 3.66 0.64 4.32 2 5 C2 5.33 2 5.66 2 6 C0.35 6 -1.3 6 -3 6 C-2.67 5.01 -2.34 4.02 -2 3 Z " fill="#F4F9FA" transform="translate(443,458)"/>
<path d="M0 0 C12.87 0 25.74 0 39 0 C39 0.33 39 0.66 39 1 C28.11 1 17.22 1 6 1 C6 1.66 6 2.32 6 3 C7.32 3.66 8.64 4.32 10 5 C4.7323908 4.52112644 4.03685532 4.03685532 0 0 Z " fill="#C9D8E2" transform="translate(748,495)"/>
<path d="M0 0 C4.0830942 -0.11614929 8.16576377 -0.18723457 12.25 -0.25 C13.40886719 -0.28351563 14.56773437 -0.31703125 15.76171875 -0.3515625 C16.87675781 -0.36445313 17.99179688 -0.37734375 19.140625 -0.390625 C20.16704102 -0.41157227 21.19345703 -0.43251953 22.25097656 -0.45410156 C25.70413805 0.1163141 26.87908227 1.27310577 29 4 C29 4.66 29 5.32 29 6 C29.66 6 30.32 6 31 6 C31.33 7.65 31.66 9.3 32 11 C31.34 10.67 30.68 10.34 30 10 C30 9.34 30 8.68 30 8 C29.360625 7.7525 28.72125 7.505 28.0625 7.25 C26 6 26 6 25 2 C16.75 2 8.5 2 0 2 C0 1.34 0 0.68 0 0 Z " fill="#52A2C0" transform="translate(234,454)"/>
<path d="M0 0 C0.66 0.33 1.32 0.66 2 1 C2.04254356 2.99954746 2.04080783 5.00041636 2 7 C1.67 7.33 1.34 7.66 1 8 C0.63239269 10.32817964 0.29758419 12.6618385 0 15 C-1.65 15.66 -3.3 16.32 -5 17 C-5 14.36 -5 11.72 -5 9 C-4.0409375 8.7215625 -4.0409375 8.7215625 -3.0625 8.4375 C-0.57873787 7.05753944 -0.57873787 7.05753944 -0.25 3.375 C-0.1675 2.26125 -0.085 1.1475 0 0 Z " fill="#7990A6" transform="translate(822,501)"/>
<path d="M0 0 C2.50357861 0.8345262 4.66785852 1.79371992 7 3 C6.67 4.65 6.34 6.3 6 8 C3.125 8.125 3.125 8.125 0 8 C-0.66 7.34 -1.32 6.68 -2 6 C-1.44444444 1.44444444 -1.44444444 1.44444444 0 0 Z " fill="#323745" transform="translate(960,975)"/>
<path d="M0 0 C0.66 0.66 1.32 1.32 2 2 C-1.63 5.63 -5.26 9.26 -9 13 C-4.05 13.33 0.9 13.66 6 14 C6 14.33 6 14.66 6 15 C-0.27 15 -6.54 15 -13 15 C-6.25 7.125 -6.25 7.125 -3.125 3.5625 C-2.52945313 2.88316406 -1.93390625 2.20382812 -1.3203125 1.50390625 C-0.88460937 1.00761719 -0.44890625 0.51132812 0 0 Z " fill="#1C69B6" transform="translate(250,521)"/>
<path d="M0 0 C0.66 0.33 1.32 0.66 2 1 C2.29296875 7.0546875 2.29296875 7.0546875 2 9 C-1 11 -1 11 -4 11 C-4.33 9.68 -4.66 8.36 -5 7 C-4.34 7 -3.68 7 -3 7 C-2.87625 6.21625 -2.7525 5.4325 -2.625 4.625 C-2 2 -2 2 0 0 Z " fill="#70889F" transform="translate(820,499)"/>
<path d="M0 0 C2.64 0 5.28 0 8 0 C8 2.31 8 4.62 8 7 C5 8 5 8 2 7 C2 5.68 2 4.36 2 3 C1.34 3 0.68 3 0 3 C0 2.01 0 1.02 0 0 Z " fill="#556B86" transform="translate(448,497)"/>
<path d="M0 0 C7.71484375 -0.09765625 7.71484375 -0.09765625 10 0 C11 1 11 1 11.09765625 3.28515625 C11.08605469 4.20167969 11.07445312 5.11820312 11.0625 6.0625 C11.05347656 6.98160156 11.04445313 7.90070313 11.03515625 8.84765625 C11.02355469 9.55792969 11.01195312 10.26820313 11 11 C10.67 11 10.34 11 10 11 C10 8.03 10 5.06 10 2 C7.36 2.33 4.72 2.66 2 3 C1.67 8.28 1.34 13.56 1 19 C0.67 19 0.34 19 0 19 C0 12.73 0 6.46 0 0 Z " fill="#AEBDCD" transform="translate(354,494)"/>
<path d="M0 0 C0.33 0 0.66 0 1 0 C1 3.96 1 7.92 1 12 C-1.31 12 -3.62 12 -6 12 C-4.68315519 7.39104317 -2.84801255 3.85859765 0 0 Z " fill="#080A13" transform="translate(444,476)"/>
<path d="M0 0 C0.33 0 0.66 0 1 0 C0.82902254 6.85464179 -0.64761454 10.76629039 -5 16 C-5.66 16.99 -6.32 17.98 -7 19 C-7.66 19 -8.32 19 -9 19 C-7.39369175 14.75707468 -5.4231838 10.72974893 -3.375 6.6875 C-3.05015625 6.04232422 -2.7253125 5.39714844 -2.390625 4.73242188 C-1.59558044 3.15402459 -0.79804366 1.57688306 0 0 Z " fill="#E2E7E9" transform="translate(507,461)"/>
<path d="M0 0 C1.14726563 -0.00257813 2.29453125 -0.00515625 3.4765625 -0.0078125 C6.375 0.125 6.375 0.125 8.375 1.125 C8.375 1.785 8.375 2.445 8.375 3.125 C2.435 3.125 -3.505 3.125 -9.625 3.125 C-9.955 2.465 -10.285 1.805 -10.625 1.125 C-7.05854453 0.01816899 -3.7195207 -0.00839621 0 0 Z " fill="#010513" transform="translate(799.625,520.875)"/>
<path d="M0 0 C0.66 0.33 1.32 0.66 2 1 C-1.3 7.27 -4.6 13.54 -8 20 C-8.66 20 -9.32 20 -10 20 C-8.45454854 14.52067211 -5.84456788 9.88570819 -3 5 C-5.31 5 -7.62 5 -10 5 C-10 4.67 -10 4.34 -10 4 C-7.36 4 -4.72 4 -2 4 C-2 3.34 -2 2.68 -2 2 C-1.34 2 -0.68 2 0 2 C0 1.34 0 0.68 0 0 Z " fill="#D7DCDF" transform="translate(506,489)"/>
<path d="M0 0 C6.93 0 13.86 0 21 0 C21 0.99 21 1.98 21 3 C20.01 3 19.02 3 18 3 C18 2.34 18 1.68 18 1 C10.26767987 1.49330865 10.26767987 1.49330865 3 4 C2.01 2.68 1.02 1.36 0 0 Z " fill="#2AB8EE" transform="translate(238,456)"/>
<path d="M0 0 C2 2 2 2 2.375 5.75 C2.2554055 10.13513176 0.93104021 12.67287328 -2 16 C-4.75 17.375 -4.75 17.375 -7 18 C-7 17.34 -7 16.68 -7 16 C-6.21625 15.54625 -5.4325 15.0925 -4.625 14.625 C-0.53683272 10.53683272 -0.58833317 5.58477459 0 0 Z " fill="#DCE0E0" transform="translate(815,508)"/>
<path d="M0 0 C2.14699969 3.44175522 2.09856795 5.7720292 1.625 9.75 C1.51414062 10.73484375 1.40328125 11.7196875 1.2890625 12.734375 C1.19367187 13.48203125 1.09828125 14.2296875 1 15 C0.34 15 -0.32 15 -1 15 C-2.38226016 12.23547967 -2.09525387 9.9538637 -2.0625 6.875 C-2.05347656 5.77929688 -2.04445313 4.68359375 -2.03515625 3.5546875 C-2.02355469 2.71164062 -2.01195312 1.86859375 -2 1 C-1.34 0.67 -0.68 0.34 0 0 Z " fill="#6E8098" transform="translate(596,502)"/>
<path d="M0 0 C2.1640625 0.2421875 2.1640625 0.2421875 4.625 0.875 C5.85089844 1.18050781 5.85089844 1.18050781 7.1015625 1.4921875 C8.04128906 1.74355469 8.04128906 1.74355469 9 2 C9 2.66 9 3.32 9 4 C7.96875 3.95875 6.9375 3.9175 5.875 3.875 C2.13170373 3.99575149 -0.53734547 4.64872018 -4 6 C-5.32 4.35 -6.64 2.7 -8 1 C-6.576875 1.309375 -6.576875 1.309375 -5.125 1.625 C-4.09375 1.74875 -3.0625 1.8725 -2 2 C-1.34 1.34 -0.68 0.68 0 0 Z " fill="#1148A6" transform="translate(272,482)"/>
<path d="M0 0 C0.99 0 1.98 0 3 0 C3 4.29 3 8.58 3 13 C2.01 13 1.02 13 0 13 C0 8.71 0 4.42 0 0 Z " fill="#0A1021" transform="translate(973,970)"/>
<path d="M0 0 C0 3 0 3 -2.23046875 5.5234375 C-3.20865735 6.48166307 -4.19470881 7.43191209 -5.1875 8.375 C-5.91163086 9.07882812 -5.91163086 9.07882812 -6.65039062 9.796875 C-7.61627679 10.73553484 -8.5848488 11.67143924 -9.55615234 12.60449219 C-11.73268535 14.70815513 -13.86548922 16.85378258 -16 19 C-16 16 -16 16 -14.53125 14.19067383 C-13.8609375 13.53607178 -13.190625 12.88146973 -12.5 12.20703125 C-11.778125 11.49482422 -11.05625 10.78261719 -10.3125 10.04882812 C-9.549375 9.31083984 -8.78625 8.57285156 -8 7.8125 C-6.8553125 6.68811523 -6.8553125 6.68811523 -5.6875 5.54101562 C-3.79819161 3.68713177 -1.90224794 1.84058931 0 0 Z " fill="#5DBDDB" transform="translate(258,511)"/>
<path d="M0 0 C2.05078125 0.03255208 4.1015625 0.06510417 6.15234375 0.09765625 C5.82234375 1.08765625 5.49234375 2.07765625 5.15234375 3.09765625 C3.83234375 3.09765625 2.51234375 3.09765625 1.15234375 3.09765625 C0.86359375 4.00515625 0.57484375 4.91265625 0.27734375 5.84765625 C-0.61607341 8.42863916 -1.59992742 10.68607951 -2.84765625 13.09765625 C-2.87452178 11.11856227 -2.89399 9.13936654 -2.91015625 7.16015625 C-2.92175781 6.05800781 -2.93335938 4.95585937 -2.9453125 3.8203125 C-2.81361949 0.14871139 -2.81361949 0.14871139 0 0 Z " fill="#5D748F" transform="translate(357.84765625,495.90234375)"/>
<path d="M0 0 C1.12910483 2.77143913 1.08085185 3.80024836 -0.0625 6.625 C-2 9 -2 9 -5.13671875 9.48828125 C-6.89435547 9.40126953 -6.89435547 9.40126953 -8.6875 9.3125 C-9.86699219 9.26738281 -11.04648437 9.22226562 -12.26171875 9.17578125 C-13.16535156 9.11777344 -14.06898438 9.05976562 -15 9 C-15 8.67 -15 8.34 -15 8 C-9.06 7.505 -9.06 7.505 -3 7 C-2.690625 6.030625 -2.38125 5.06125 -2.0625 4.0625 C-1 1 -1 1 0 0 Z " fill="#E7E9E9" transform="translate(484,528)"/>
<path d="M0 0 C2.50298434 2.93828597 3.46930939 5.17902761 4 9 C3.34 9 2.68 9 2 9 C2 8.34 2 7.68 2 7 C-3.94 7.495 -3.94 7.495 -10 8 C-10.33 7.34 -10.66 6.68 -11 6 C-7.7 5.67 -4.4 5.34 -1 5 C-0.67 3.35 -0.34 1.7 0 0 Z " fill="#DBE2E5" transform="translate(542,488)"/>
<path d="M0 0 C0.66 0.33 1.32 0.66 2 1 C1.67 3.31 1.34 5.62 1 8 C0.01 8.33 -0.98 8.66 -2 9 C-2 10.65 -2 12.3 -2 14 C-2.33 14 -2.66 14 -3 14 C-3.15569823 4.81380417 -3.15569823 4.81380417 -2 1 C-1.34 0.67 -0.68 0.34 0 0 Z " fill="#6C7E94" transform="translate(656,503)"/>
<path d="M0 0 C0 3 0 3 -2.625 5.91796875 C-3.74249406 7.01550756 -4.86785643 8.10507895 -6 9.1875 C-6.57234375 9.74630859 -7.1446875 10.30511719 -7.734375 10.88085938 C-9.14962788 12.26073093 -10.57397155 13.63126734 -12 15 C-12 11.26161126 -11.11005385 10.67777231 -8.625 8 C-6.51259272 5.705039 -4.73869403 3.60804104 -3 1 C-2.01 0.67 -1.02 0.34 0 0 Z " fill="#51C1E1" transform="translate(324,467)"/>
<path d="M0 0 C2.02054804 1.64169528 4.02043058 3.30911778 6 5 C6 5.33 6 5.66 6 6 C-0.6 6 -7.2 6 -14 6 C-14 5.67 -14 5.34 -14 5 C-9.38 4.67 -4.76 4.34 0 4 C0 2.68 0 1.36 0 0 Z " fill="#1775C0" transform="translate(330,530)"/>
<path d="M0 0 C0.99 0.33 1.98 0.66 3 1 C2.38125 1.721875 1.7625 2.44375 1.125 3.1875 C-0.84485768 5.79466457 -1.8303934 7.99244017 -3 11 C-3.99 11.495 -3.99 11.495 -5 12 C-5.35338623 9.03155565 -5.5417682 6.84401782 -3.88671875 4.265625 C-2.64496832 2.79651181 -1.32662082 1.39295186 0 0 Z " fill="#2278BD" transform="translate(313,474)"/>
<path d="M0 0 C4.29 0 8.58 0 13 0 C12.67 0.99 12.34 1.98 12 3 C7.83547821 4.78479505 4.10700505 3.36900168 0 2 C0 1.34 0 0.68 0 0 Z " fill="#D9DFE3" transform="translate(650,457)"/>
<path d="M0 0 C5.28 0 10.56 0 16 0 C16 0.33 16 0.66 16 1 C15.04287109 1.07347656 15.04287109 1.07347656 14.06640625 1.1484375 C13.24011719 1.22320312 12.41382813 1.29796875 11.5625 1.375 C10.32693359 1.47941406 10.32693359 1.47941406 9.06640625 1.5859375 C8.04353516 1.79089844 8.04353516 1.79089844 7 2 C6.67 2.66 6.34 3.32 6 4 C3.69 3.34 1.38 2.68 -1 2 C-0.67 1.34 -0.34 0.68 0 0 Z " fill="#698299" transform="translate(804,498)"/>
<path d="M0 0 C-1 2 -1 2 -2.5625 3.1875 C-6.24191796 4.41397265 -9.19442869 3.63426189 -13 3 C-8.38322418 -0.07785055 -5.48548106 -1.5672803 0 0 Z " fill="#1049AA" transform="translate(300,483)"/>
<path d="M0 0 C2.64 0 5.28 0 8 0 C8 1.32 8 2.64 8 4 C4.86650268 5.04449911 4.01031744 4.93423645 1 4 C0.67 2.68 0.34 1.36 0 0 Z " fill="#52657F" transform="translate(720,499)"/>
<path d="M0 0 C1.32 0.66 2.64 1.32 4 2 C1.47111299 4.79983919 -0.19713015 6.50930712 -4 7 C-4.99 7 -5.98 7 -7 7 C-4.69 4.69 -2.38 2.38 0 0 Z " fill="#166FC8" transform="translate(299,473)"/>
<path d="M0 0 C0.33 0 0.66 0 1 0 C1 3.96 1 7.92 1 12 C-0.32 11.67 -1.64 11.34 -3 11 C-2.53199289 6.94393835 -2.12046792 3.53411321 0 0 Z " fill="#8CA2B5" transform="translate(824,505)"/>
<path d="M0 0 C0 3 0 3 -1.35546875 4.6484375 C-1.96003906 5.21820313 -2.56460937 5.78796875 -3.1875 6.375 C-3.82171875 6.98214844 -4.4559375 7.58929688 -5.109375 8.21484375 C-6.04523438 9.09849609 -6.04523438 9.09849609 -7 10 C-7.98280891 10.97551082 -8.96254474 11.95413996 -9.9375 12.9375 C-10.618125 13.618125 -11.29875 14.29875 -12 15 C-10.57641609 10.45925821 -8.27867927 7.96026853 -4.875 4.6875 C-3.96492188 3.80449219 -3.05484375 2.92148437 -2.1171875 2.01171875 C-1.41851562 1.34785156 -0.71984375 0.68398438 0 0 Z " fill="#58A8CE" transform="translate(271,497)"/>
<path d="M0 0 C0.99 0.495 0.99 0.495 2 1 C2 1.66 2 2.32 2 3 C3.11375 3.103125 4.2275 3.20625 5.375 3.3125 C7.169375 3.6528125 7.169375 3.6528125 9 4 C9.99 5.485 9.99 5.485 11 7 C9.54077307 6.88590407 8.08259402 6.75834456 6.625 6.625 C5.40683594 6.52058594 5.40683594 6.52058594 4.1640625 6.4140625 C2 6 2 6 0 4 C0 2.68 0 1.36 0 0 Z " fill="#1761C2" transform="translate(271,475)"/>
<path d="M0 0 C0.66 0.33 1.32 0.66 2 1 C1.37166879 3.93221231 0.61153242 6.45547513 -1 9 C-3.125 10.25 -3.125 10.25 -5 11 C-3.77472971 6.94718288 -2.30119506 3.55639236 0 0 Z " fill="#171B25" transform="translate(517,471)"/>
<path d="M0 0 C0.33 0.66 0.66 1.32 1 2 C1.66 2.20625 2.32 2.4125 3 2.625 C5 4 5 4 5.484375 5.90625 C5.72669149 7.93030541 5.86875617 9.96572061 6 12 C3.02404533 9.44918171 1.55997434 6.56565563 0 3 C0 2.01 0 1.02 0 0 Z " fill="#111420" transform="translate(545,491)"/>
<path d="M0 0 C3.63 0 7.26 0 11 0 C11 0.99 11 1.98 11 3 C10.34 3.66 9.68 4.32 9 5 C9 4.01 9 3.02 9 2 C6.03 2 3.06 2 0 2 C0 1.34 0 0.68 0 0 Z " fill="#C3CFD9" transform="translate(422,493)"/>
<path d="M0 0 C0.33 0.99 0.66 1.98 1 3 C-0.6875 4.625 -0.6875 4.625 -3 6 C-5.75 5.1875 -5.75 5.1875 -8 4 C-5.31752816 1.31752816 -3.87224464 0 0 0 Z " fill="#2489D0" transform="translate(305,469)"/>
<path d="M0 0 C0.99 0.33 1.98 0.66 3 1 C1.71451591 2.33929505 0.42141845 3.67128643 -0.875 5 C-1.59429687 5.7425 -2.31359375 6.485 -3.0546875 7.25 C-5 9 -5 9 -7 9 C-5.44499019 5.18315774 -2.96404505 2.80804268 0 0 Z " fill="#0B347F" transform="translate(263,508)"/>
<path d="M0 0 C0.66 0 1.32 0 2 0 C0.90931332 3.77545388 0.0916909 6.47043472 -3 9 C-3.66 7.35 -4.32 5.7 -5 4 C-4.01 4 -3.02 4 -2 4 C-1.34 2.68 -0.68 1.36 0 0 Z " fill="#0F1523" transform="translate(408,509)"/>
<path d="M0 0 C0.61875 0.804375 1.2375 1.60875 1.875 2.4375 C5.49443249 6.15135247 10.07531881 5.89481263 15 6 C15 6.33 15 6.66 15 7 C13.06440687 7.13504138 11.126128 7.23201129 9.1875 7.3125 C7.56908203 7.39951172 7.56908203 7.39951172 5.91796875 7.48828125 C3 7 3 7 1.11328125 4.60546875 C0 2 0 2 0 0 Z " fill="#EFF3F3" transform="translate(396,524)"/>
<path d="M0 0 C5.52628901 1.19194469 8.17819158 2.5991297 12 7 C11.34 7.66 10.68 8.32 10 9 C9.46375 8.236875 8.9275 7.47375 8.375 6.6875 C5.79794186 3.77135526 3.54185596 2.5294378 0 1 C0 0.67 0 0.34 0 0 Z " fill="#C5CDD2" transform="translate(804,500)"/>
<path d="M0 0 C0.66 0.99 1.32 1.98 2 3 C0.68 5.64 -0.64 8.28 -2 11 C-2.66 10.67 -3.32 10.34 -4 10 C-2.8905928 6.51329166 -1.73662334 3.22515763 0 0 Z " fill="#C9CFD2" transform="translate(508,508)"/>
<path d="M0 0 C0.99 0.33 1.98 0.66 3 1 C0.03 4.96 0.03 4.96 -3 9 C-3.33 8.01 -3.66 7.02 -4 6 C-2.0625 2.8125 -2.0625 2.8125 0 0 Z " fill="#546C86" transform="translate(420,497)"/>
<path d="M0 0 C1.32 0.33 2.64 0.66 4 1 C2.68 3.31 1.36 5.62 0 8 C-0.66 7.34 -1.32 6.68 -2 6 C-1.64644564 3.73725212 -1.02455574 2.04911148 0 0 Z " fill="#131927" transform="translate(414,497)"/>
<path d="M0 0 C0.33 0 0.66 0 1 0 C1 1.65 1 3.3 1 5 C-0.65 5.66 -2.3 6.32 -4 7 C-4 5.35 -4 3.7 -4 2 C-2.68 2 -1.36 2 0 2 C0 1.34 0 0.68 0 0 Z " fill="#8297AA" transform="translate(821,511)"/>
<path d="M0 0 C1.32 0.66 2.64 1.32 4 2 C3.19152271 3.16945792 2.37810888 4.33550461 1.5625 5.5 C1.11003906 6.1496875 0.65757812 6.799375 0.19140625 7.46875 C-0.20175781 7.9740625 -0.59492188 8.479375 -1 9 C-1.33 9 -1.66 9 -2 9 C-1.125 2.25 -1.125 2.25 0 0 Z " fill="#8496A7" transform="translate(482,511)"/>
<path d="M0 0 C0.99 0.33 1.98 0.66 3 1 C-0.465 3.97 -0.465 3.97 -4 7 C-4.33 6.01 -4.66 5.02 -5 4 C-2.6875 1.9375 -2.6875 1.9375 0 0 Z " fill="#DDE7EB" transform="translate(753,459)"/>
<path d="M0 0 C3.3 0 6.6 0 10 0 C10 0.33 10 0.66 10 1 C8.35 1 6.7 1 5 1 C5 1.66 5 2.32 5 3 C3.35 3 1.7 3 0 3 C0 2.01 0 1.02 0 0 Z " fill="#020511" transform="translate(744,521)"/>
<path d="M0 0 C2.64 0 5.28 0 8 0 C8 0.99 8 1.98 8 3 C7.34 3 6.68 3 6 3 C5.67 3.99 5.34 4.98 5 6 C4.896875 5.360625 4.79375 4.72125 4.6875 4.0625 C4.3471875 3.0415625 4.3471875 3.0415625 4 2 C3.01 1.67 2.02 1.34 1 1 C0.67 1.66 0.34 2.32 0 3 C0 2.01 0 1.02 0 0 Z " fill="#48607C" transform="translate(448,497)"/>
<path d="M0 0 C1.32 0 2.64 0 4 0 C4 1.65 4 3.3 4 5 C3.01 5.495 3.01 5.495 2 6 C1.34 5.67 0.68 5.34 0 5 C0 3.35 0 1.7 0 0 Z " fill="#050A13" transform="translate(493,477)"/>
<path d="M0 0 C0.66 1.32 1.32 2.64 2 4 C-0.97 6.475 -0.97 6.475 -4 9 C-2.80100302 5.9168649 -1.52299523 2.93720508 0 0 Z " fill="#DDE5E7" transform="translate(428,478)"/>
<path d="M0 0 C0.66 0.66 1.32 1.32 2 2 C1 3.5625 1 3.5625 -1 5 C-3.76614782 4.96726452 -6.26030547 4.49404328 -9 4 C-9 3.67 -9 3.34 -9 3 C-6.36 3 -3.72 3 -1 3 C-0.67 2.01 -0.34 1.02 0 0 Z " fill="#E8EEEF" transform="translate(434,489)"/>
<path d="M0 0 C0.33 0 0.66 0 1 0 C1 1.98 1 3.96 1 6 C-0.65 6.66 -2.3 7.32 -4 8 C-2.87548273 5.0280615 -1.77706209 2.66559313 0 0 Z " fill="#21222D" transform="translate(444,476)"/>
<path d="M0 0 C2.46800047 1.15173355 4.04783565 2.04783565 6 4 C6 4.99 6 5.98 6 7 C3 6 3 6 1.3125 2.9375 C0.879375 1.968125 0.44625 0.99875 0 0 Z " fill="#D7E0E2" transform="translate(517,470)"/>
</svg>
